<svg width="264" height="101" viewBox="0 0 264 101" fill="none" xmlns="http://www.w3.org/2000/svg">
<path d="M54.631 97.4407C54.631 98.4423 54.3292 99.2163 53.6825 99.7627C53.0789 100.309 52.2166 100.582 51.0955 100.582C50.0176 100.582 49.1122 100.4 48.4224 99.9904V98.2602C48.8535 98.4879 49.3278 98.67 49.8452 98.8066C50.3195 98.9432 50.7937 99.0342 51.2249 99.0342C51.8716 99.0342 52.3028 98.8976 52.6046 98.6245C52.9064 98.3513 53.0357 97.987 53.0357 97.5317C53.0357 97.122 52.9064 96.7577 52.6477 96.4845C52.389 96.2114 51.8285 95.8471 50.9662 95.4829C50.1039 95.0731 49.4571 94.6178 49.1122 94.0714C48.7673 93.5251 48.5517 92.9332 48.5517 92.1592C48.5517 91.2486 48.8535 90.5201 49.414 89.9737C49.9745 89.4273 50.7506 89.1997 51.6992 89.1997C52.6046 89.1997 53.5531 89.4274 54.4586 89.8827L53.9412 91.3396C53.0789 90.9298 52.3028 90.7022 51.656 90.7022C51.1387 90.7022 50.7506 90.8388 50.4919 91.0664C50.2332 91.3396 50.1039 91.6583 50.1039 92.0681C50.1039 92.3413 50.147 92.6145 50.2763 92.7966C50.3626 93.0242 50.535 93.2064 50.7937 93.3885C51.0524 93.5706 51.4836 93.7983 52.0872 94.117C52.777 94.4357 53.2944 94.7544 53.6394 95.0731C53.9843 95.3463 54.1999 95.7105 54.3723 96.0748C54.5448 96.5301 54.631 96.9398 54.631 97.4407Z" fill="#ADCECA"/>
<path d="M64.5809 91.0456C63.6435 91.0456 62.8847 91.3988 62.349 92.1052C61.8134 92.8116 61.5456 93.827 61.5456 95.0632C61.5456 96.3878 61.8134 97.3591 62.3044 98.0655C62.84 98.7277 63.5542 99.0809 64.5363 99.0809C64.9826 99.0809 65.3844 99.0368 65.7861 98.9485C66.1879 98.8602 66.5896 98.7277 67.036 98.5953V100.096C66.2325 100.405 65.3844 100.582 64.3577 100.582C62.8847 100.582 61.7687 100.096 60.9653 99.1693C60.1618 98.1979 59.8047 96.8734 59.8047 95.0632C59.8047 93.9595 59.9832 92.9882 60.385 92.1493C60.7867 91.3105 61.3224 90.6482 62.0366 90.2067C62.7508 89.7652 63.5989 89.5444 64.5809 89.5444C65.6076 89.5444 66.5449 89.7652 67.3931 90.2508L66.8128 91.7078C66.4557 91.5312 66.0986 91.3988 65.7415 91.2663C65.3844 91.0897 65.0273 91.0456 64.5809 91.0456Z" fill="#ADCECA"/>
<path d="M80.5007 100.237H78.8423V95.3968H74.2257V100.237H72.5674V89.5444H74.2257V93.9007H78.8423V89.5444H80.5007V100.237Z" fill="#ADCECA"/>
<path d="M86.709 100.237V89.5444H88.0887V100.237H86.709Z" fill="#ADCECA"/>
<path d="M94.2974 100.237V89.5444H95.941V98.741H100.161V100.237H94.2974Z" fill="#ADCECA"/>
<path d="M113.613 94.7808C113.613 96.5409 113.161 97.905 112.211 98.829C111.261 99.7531 109.949 100.237 108.185 100.237H105.335V89.5444H108.456C110.085 89.5444 111.306 89.9845 112.211 90.9085C113.161 91.8326 113.613 93.1527 113.613 94.7808ZM111.849 94.8688C111.849 92.3166 110.718 91.0405 108.456 91.0405H107.009V98.829H108.185C110.628 98.785 111.849 97.465 111.849 94.8688Z" fill="#ADCECA"/>
<path d="M124.996 100.237H119.132V89.5444H124.996V91.0405H120.841V93.9447H124.719V95.3968H120.841V98.741H124.996V100.237Z" fill="#ADCECA"/>
<path d="M132.186 96.1489V100.537H130.515V89.5444H133.36C134.67 89.5444 135.619 89.8158 136.251 90.3587C136.883 90.9015 137.2 91.7158 137.2 92.7562C137.2 94.1133 136.567 95.1085 135.257 95.6966L138.103 100.582H136.206L133.767 96.1941H132.186V96.1489ZM132.186 94.6561H133.315C134.083 94.6561 134.67 94.5204 134.986 94.2038C135.348 93.8871 135.528 93.4347 135.528 92.8014C135.528 92.1681 135.348 91.7158 134.986 91.4443C134.625 91.1729 134.038 91.0372 133.315 91.0372H132.231V94.6561H132.186Z" fill="#ADCECA"/>
<path d="M152.16 100.237H150.406L148.739 93.8567C148.651 93.5927 148.564 93.1967 148.476 92.6686C148.388 92.1406 148.301 91.7886 148.301 91.5686C148.257 91.8766 148.169 92.2726 148.081 92.8006C147.994 93.2847 147.906 93.6807 147.818 93.9007L146.195 100.237H144.441L143.169 94.8688L141.897 89.5444H143.52L144.924 95.7928C145.143 96.8049 145.318 97.685 145.406 98.433C145.45 98.037 145.538 97.553 145.625 97.0249C145.713 96.4969 145.801 96.1009 145.888 95.7928L147.467 89.5444H149.046L150.669 95.8368C150.844 96.4089 150.976 97.2889 151.151 98.433C151.239 97.729 151.37 96.8489 151.634 95.7488L153.037 89.5444H154.66L152.16 100.237Z" fill="#ADCECA"/>
<path d="M165.352 100.237H159.833V89.5444H165.352V91.0405H161.441V93.9447H165.092V95.3968H161.441V98.741H165.352V100.237Z" fill="#ADCECA"/>
<path d="M172.811 96.1489V100.537H171.216V89.5444H173.932C175.182 89.5444 176.088 89.8158 176.692 90.3587C177.295 90.9015 177.597 91.7158 177.597 92.7562C177.597 94.1133 176.95 95.1085 175.743 95.6966L178.459 100.582H176.648L174.32 96.1941H172.811V96.1489ZM172.811 94.6561H173.889C174.622 94.6561 175.139 94.5204 175.484 94.2038C175.829 93.8871 175.959 93.4347 175.959 92.8014C175.959 92.1681 175.786 91.7158 175.441 91.4443C175.096 91.1729 174.536 91.0372 173.846 91.0372H172.811V94.6561Z" fill="#ADCECA"/>
<path d="M191.222 100.237H189.358L186.251 95.3968L185.275 96.2329V100.237H183.633V89.5444H185.275V94.6488C185.719 94.0767 186.163 93.5047 186.607 92.9767L189.313 89.5444H191.177C189.447 91.7446 188.204 93.2847 187.45 94.2527L191.222 100.237Z" fill="#ADCECA"/>
<path d="M201.57 100.237H196.051V89.5444H201.57V91.0405H197.659V93.9447H201.309V95.3968H197.659V98.741H201.57V100.237Z" fill="#ADCECA"/>
<path d="M215.711 100.537H213.719L208.85 91.7247H208.761L208.805 92.2243C208.85 93.1782 208.894 93.9958 208.894 94.8134V100.582H207.433V89.5444H209.381L214.25 98.3109H214.295C214.295 98.2201 214.25 97.7659 214.25 97.0391C214.206 96.3124 214.206 95.7219 214.206 95.3131V89.5444H215.711V100.537Z" fill="#ADCECA"/>
<path d="M16.7234 20.2488C16.206 15.6613 18.793 12.9709 23.0011 12.5225C27.2092 12.0741 28.9338 14.3506 29.2097 17.041C29.4857 19.559 28.4164 22.5598 26.4848 24.0085C27.5886 25.0433 28.7958 25.3882 30.1755 25.2157C34.0042 24.8018 36.0737 21.2491 35.5909 16.7996C34.6595 8.38336 25.8639 8.59032 22.2767 8.96974C12.4118 10.039 5.23738 16.6616 6.09969 24.5949C7.34142 35.8395 23.5184 38.8058 24.9671 51.8785C25.657 58.2941 22.3457 62.4677 17.2063 63.0196C12.3084 63.5715 9.47996 60.2947 9.06605 56.466C8.47968 51.1887 13.1017 48.7397 17.2408 48.2913C16.5854 44.3246 12.6188 43.6693 9.96286 43.9797C4.61651 44.5661 -0.798825 49.4985 0.0979819 57.7767C1.13276 67.1242 9.03156 70.1251 17.7582 69.1593C28.8648 67.952 38.5572 60.5017 37.143 47.6704C35.3494 31.1485 17.9651 31.4934 16.7234 20.2488Z" fill="#E0B860"/>
<path d="M221.575 36.9778C218.884 37.2537 216.642 35.9775 216.125 31.1485C216.056 30.4587 216.022 29.5963 216.022 28.8375C225.162 27.2853 232.819 19.628 231.854 10.7634C231.44 6.93471 229.439 3.58893 222.61 4.34777C206.916 6.0724 203.984 25.0778 204.949 33.8734C205.087 35.1841 205.329 36.3569 205.674 37.3917C204.88 38.392 203.846 39.0473 202.397 39.2198C200.086 39.4612 199.189 38.254 198.982 36.3224C198.499 32.0453 201.155 22.3874 200.5 16.1787C199.81 10.039 195.947 7.935 191.049 8.45239C188.221 8.76282 184.185 10.0735 181.115 16.1442C179.77 11.4877 176.562 10.0046 172.492 10.4185C169.802 10.7289 166.456 11.7637 163.627 15.7993L164.041 11.7292L153.038 12.9364L149.899 44.2212C149.175 44.9111 148.278 45.3595 147.105 45.4974C144.829 45.7389 143.898 44.5316 143.691 42.6345C143.208 38.3575 145.864 28.6995 145.208 22.4909C144.518 16.3512 140.655 14.2471 135.757 14.7645C132.929 15.075 128.893 16.3857 125.823 22.4564C124.444 17.7999 121.27 16.2822 117.235 16.7306C114.544 17.041 111.199 18.0758 108.37 22.1115L108.784 18.0413L97.781 19.2486L94.6077 51.0507C93.9178 51.7061 93.09 52.1545 92.1242 52.258C89.9857 52.4994 88.8474 51.4646 88.6405 49.3261C88.5715 48.6362 88.5715 47.8774 88.675 46.8426L91.3309 20.2144L80.3278 21.4216L79.9138 25.5607L79.8449 25.0088C79.6034 22.8013 77.5684 21.3181 73.2223 21.801C59.9081 23.2497 55.3551 40.427 56.4934 50.7403C56.6314 51.982 56.8383 53.1203 57.1487 54.1206C56.114 55.3278 54.8377 56.1211 53.4235 56.2936C51.285 56.5351 50.2157 55.9487 49.9743 53.8101C49.9053 53.1203 49.8708 52.3614 50.0088 51.3267L52.3888 27.8372L56.9763 27.3198L57.2522 24.181L52.6647 24.6984L53.9409 12.3156L42.7998 15.075L41.6616 25.8711L39.1436 26.1471L38.8677 29.2859L41.3856 29.01L39.1436 51.0162C38.9712 52.9133 38.9022 54.6035 39.0746 56.0522C39.7645 62.4678 43.6621 64.8478 48.2842 64.3304C51.1125 64.0199 55.4241 62.7437 58.8389 57.8803C61.1154 61.2605 64.5991 62.2953 68.0484 61.9159C73.4982 61.3295 76.706 57.3974 78.6721 53.6377C79.6379 58.1907 82.6733 60.3292 86.9503 59.8463C88.9509 59.6394 91.5378 58.9495 94.0558 56.811L93.9178 58.3632L104.921 57.1559L107.404 32.0108C108.129 28.0442 109.819 24.5259 112.82 24.2155C114.51 24.043 115.303 25.6297 115.476 27.3198C115.545 28.0097 115.545 28.6305 115.441 29.2514L112.751 56.2591L123.754 55.0519L126.272 29.9068C126.996 25.9401 128.721 22.5254 131.48 22.2149C133.308 22.008 134.378 23.2842 134.654 25.8022C135.205 30.7001 132.791 40.496 133.343 45.7044C133.826 50.0504 136.654 54.0861 143.311 53.3617C145.07 53.1548 147.174 52.6374 149.209 50.9817L149.106 51.982L160.109 50.7748L162.627 25.6297C163.351 21.663 165.076 18.1448 168.042 17.8344C169.733 17.6619 170.526 19.2831 170.698 20.9387C170.767 21.6286 170.767 22.2494 170.664 22.8703L167.973 49.878L178.977 48.6707L181.564 23.6636C182.288 19.7315 184.012 16.2822 186.772 15.9718C188.6 15.7648 189.669 17.041 189.945 19.559C190.497 24.4569 188.083 34.2528 188.634 39.4612C189.117 43.8418 191.946 47.8429 198.603 47.1186C201.293 46.8081 204.743 45.7044 207.571 41.1859C209.916 44.1867 213.642 45.2215 218.126 44.7041C224.231 44.0142 229.474 40.8064 230.129 31.9073C227.956 34.3563 224.507 36.6673 221.575 36.9778ZM223.713 8.31442C225.162 8.14195 225.749 9.3147 225.955 11.2463C226.645 17.6619 222.092 24.1465 216.16 25.1123C216.987 17.6619 219.885 8.76282 223.713 8.31442ZM77.8098 46.5667C77.3959 51.1197 74.4295 53.7412 72.1875 54.0171C70.8078 54.1551 68.3588 54.362 67.7035 48.4638C66.9101 41.2893 69.6006 27.0439 76.1197 26.3195C78.5686 26.0436 79.4654 27.9752 79.5689 28.872L77.8098 46.5667Z" fill="#E0B860"/>
<path d="M263.863 38.8403C262.035 22.3184 244.65 22.6633 243.409 11.4187C242.891 6.83122 245.478 4.1408 249.686 3.6924C253.894 3.24399 255.619 5.5205 255.929 8.21092C256.205 10.7289 255.136 13.7297 253.205 15.1784C254.343 16.2132 255.516 16.5581 256.895 16.3857C260.724 15.9718 262.793 12.419 262.311 7.96948C261.379 -0.446713 252.584 -0.239758 248.996 0.13966C239.132 1.20893 231.957 7.83151 232.819 15.7648C234.061 27.0094 250.238 29.9412 251.687 43.0484C252.411 49.464 249.065 53.6377 243.926 54.1895C239.028 54.7069 236.2 51.4646 235.786 47.6359C235.199 42.3586 239.821 39.9096 243.961 39.4612C243.305 35.4946 239.339 34.8737 236.683 35.1496C231.336 35.736 225.921 40.6684 226.818 48.9467C227.852 58.2942 235.751 61.295 244.478 60.3292C255.55 59.0875 265.277 51.6716 263.863 38.8403Z" fill="#E0B860"/>
<path d="M178.769 61.9159C160.626 64.6753 138.379 66.9518 120.028 69.2628C98.0222 72.1602 74.0844 74.4712 51.9401 76.0924C51.9401 75.9544 53.7337 75.6095 51.9056 75.6785C44.5242 76.0924 44.4897 75.8854 44.4552 75.644C44.4552 75.5405 49.974 75.0921 48.1114 75.1611C53.6303 74.6092 62.8398 73.5744 57.2865 73.9883C55.4239 74.0573 48.077 74.9541 46.2488 74.9886C44.3862 75.0231 48.0425 74.4022 46.1799 74.4367L38.8329 75.368C37.0048 75.506 40.6266 74.8506 38.7984 75.0921C33.2796 75.7819 25.9672 76.8857 18.6548 78.024C18.6548 77.9895 16.8267 78.3344 20.4829 77.7135C36.453 75.0231 52.5955 72.6431 68.807 70.4356C85.0185 68.2281 101.299 66.193 117.614 64.3304C150.244 60.6397 182.943 57.7078 215.331 56.1902C222.747 55.9142 217.16 56.0522 211.641 56.5006L215.331 56.2591L204.294 57.3974L209.813 56.88C211.641 56.7075 209.813 56.949 209.813 56.9835C207.985 57.1904 206.122 57.3629 206.122 57.3974V57.5354L213.469 56.6731C211.641 56.88 209.813 57.1215 209.813 57.1215V57.2249L196.947 58.8806L196.981 59.0186C200.672 58.5701 206.156 57.8113 209.813 57.2939C207.985 57.5699 207.985 57.6044 207.985 57.6388C202.5 58.5012 196.981 59.0875 191.497 60.0188L196.981 59.26C193.463 60.0533 184.254 61.1226 178.769 61.9159Z" fill="#E0B860"/>
<path d="M178.769 61.9159C160.626 64.6753 138.379 66.9518 120.028 69.2628C98.0222 72.1602 74.0844 74.4712 51.9401 76.0924C51.9401 75.9544 53.7337 75.6095 51.9056 75.6785C44.5242 76.0924 44.4897 75.8854 44.4552 75.644C44.4552 75.5405 49.974 75.0921 48.1114 75.1611C53.6303 74.6092 62.8398 73.5744 57.2865 73.9883C55.4239 74.0573 48.077 74.9541 46.2488 74.9886C44.3862 75.0231 48.0425 74.4022 46.1799 74.4367L38.8329 75.368C37.0048 75.506 40.6266 74.8506 38.7984 75.0921C33.2796 75.7819 25.9672 76.8857 18.6548 78.024C18.6548 77.9895 16.8267 78.3344 20.4829 77.7135C36.453 75.0231 52.5955 72.6431 68.807 70.4356C85.0185 68.2281 101.299 66.193 117.614 64.3304C150.244 60.6397 182.943 57.7078 215.331 56.1902C222.747 55.9142 217.16 56.0522 211.641 56.5006L215.331 56.2591L204.294 57.3974L209.813 56.88C211.641 56.7075 209.813 56.949 209.813 56.9835C207.985 57.1904 206.122 57.3629 206.122 57.3974V57.5354L213.469 56.6731C211.641 56.88 209.813 57.1215 209.813 57.1215V57.2249L196.947 58.8806L196.981 59.0186C200.672 58.5701 206.156 57.8113 209.813 57.2939C207.985 57.5699 207.985 57.6044 207.985 57.6388C202.5 58.5012 196.981 59.0875 191.497 60.0188L196.981 59.26C193.463 60.0533 184.254 61.1226 178.769 61.9159Z" fill="#E0B860"/>
</svg>
