<svg width="100%" height="73" viewBox="0 0 1512 73" fill="none" xmlns="http://www.w3.org/2000/svg">
<g clip-path="url(#clip0_2323_80)">
<path fill-rule="evenodd" clip-rule="evenodd" d="M74.8038 57.7226C74.8038 57.7226 74.8038 57.7226 74.8038 57.7007C74.8038 57.7226 74.7819 57.7446 74.76 57.7666L74.8038 57.7226Z" fill="#13565E"/>
<path fill-rule="evenodd" clip-rule="evenodd" d="M321.13 59.0592C321.13 59.0592 321.086 59.0812 321.043 59.1251L321.13 59.0592Z" fill="#13565E"/>
<path fill-rule="evenodd" clip-rule="evenodd" d="M120.903 6.94787C120.903 6.94787 120.859 6.94787 120.837 6.94787C120.837 6.94787 120.881 6.94787 120.903 6.96983C120.903 6.94787 120.903 6.94787 120.903 6.9259V6.94787Z" fill="#13565E"/>
<path fill-rule="evenodd" clip-rule="evenodd" d="M281.822 1.80383C281.822 1.80383 281.866 1.91518 281.888 1.95972C281.888 1.95972 281.932 1.93745 281.932 1.91518L281.822 1.80383Z" fill="#13565E"/>
<path fill-rule="evenodd" clip-rule="evenodd" d="M439.587 10.2664C439.587 10.2664 439.587 10.3777 439.587 10.4222C439.631 10.4222 439.653 10.4 439.697 10.3777L439.587 10.2664Z" fill="#13565E"/>
<path fill-rule="evenodd" clip-rule="evenodd" d="M1437.24 57.7666C1437.24 57.7666 1437.22 57.7226 1437.2 57.7007C1437.2 57.7007 1437.2 57.7007 1437.2 57.7226L1437.24 57.7666Z" fill="#13565E"/>
<path fill-rule="evenodd" clip-rule="evenodd" d="M1190.96 59.1028C1190.96 59.1028 1190.91 59.0808 1190.89 59.0369L1190.98 59.1028H1190.96Z" fill="#13565E"/>
<path fill-rule="evenodd" clip-rule="evenodd" d="M1391.1 6.94812C1391.1 6.94812 1391.1 6.94812 1391.1 6.99205C1391.1 6.99205 1391.14 6.99205 1391.16 6.97009C1391.16 6.97009 1391.12 6.97009 1391.1 6.97009V6.94812Z" fill="#13565E"/>
<path fill-rule="evenodd" clip-rule="evenodd" d="M1230.07 1.91518C1230.07 1.91518 1230.11 1.93745 1230.11 1.95972C1230.13 1.91518 1230.16 1.87064 1230.18 1.80383L1230.07 1.91518Z" fill="#13565E"/>
<path fill-rule="evenodd" clip-rule="evenodd" d="M1508.91 11.1571C1510.13 11.4466 1511.1 11.2684 1512 10.823V3.14001C1509.71 3.18455 1507.44 3.22908 1505.17 3.40724C1501.77 3.65221 1498.42 4.14214 1495.05 4.52073C1493 4.74342 1490.92 4.85477 1488.9 5.18882C1486.58 5.5674 1486.23 6.03506 1485.9 8.32884C1485.87 8.59608 1486.05 8.93012 1486.01 9.19736C1485.98 9.42006 1485.74 9.62048 1485.61 9.84318C1483.01 9.68729 1485.68 7.05947 1483.98 6.41365C1480.23 6.94812 1477.59 8.84104 1476.59 12.6714C1478.51 14.4753 1480.74 11.7138 1482.68 13.5399C1482.26 13.8517 1481.99 14.2748 1481.66 14.2971C1478.91 14.6312 1476.13 14.8761 1473.35 15.1434C1472.62 15.2102 1471.88 15.1211 1471.19 15.277C1468.74 15.8337 1468.74 15.856 1465.31 14.6534C1467.22 14.1635 1468.74 13.7626 1470.44 13.3172C1470.44 12.6269 1470.51 11.7806 1470.53 10.6894C1469.89 11.2462 1469.43 11.6916 1468.9 12.1592C1467.22 11.6248 1468.52 9.64275 1467.13 8.66289C1466.83 8.88558 1466.08 9.15282 1466.03 9.46459C1465.92 11.2016 1464.91 11.2907 1463.37 10.5558C1463.3 12.4265 1463.25 13.874 1463.17 15.5442C1462.06 15.4997 1461.25 15.4774 1460.41 15.4329L1460.52 15.3215C1459.09 16.3905 1457.72 17.3926 1455.69 16.8581C1454.77 16.6132 1453.58 16.8581 1452.67 17.2367C1449.28 18.7065 1445.71 18.0607 1442.22 18.2388C1441.12 18.2834 1439.53 17.9716 1438.96 17.2367C1437.84 15.7001 1435.81 16.0787 1434.88 14.9652C1433.78 13.6068 1432.21 13.8517 1431.02 13.05C1430.69 12.805 1430.3 12.6269 1429.94 12.4265C1430.23 11.4466 1430.91 11.7138 1431.38 11.9143C1433.56 12.8719 1435.41 12.0033 1437.24 10.9121C1438.32 10.2663 1438.23 9.55367 1436.91 8.21749C1434.64 9.44232 1434.64 9.37552 1432.01 9.48686C1429.52 9.59821 1427.05 9.84318 1424.59 10.0436C1424.12 9.28644 1423.79 8.66289 1423.44 8.0616C1421.21 8.2843 1419.03 8.64062 1416.85 8.70743C1413.72 8.7965 1411.03 9.57594 1409.59 12.4042C1407.32 12.805 1405.34 13.4286 1403.35 13.4509C1401.85 13.4509 1400.33 12.6714 1398.57 12.1592C1399.69 10.9344 1400.66 9.86545 1401.85 8.55154C1401.08 8.15068 1400.62 7.72756 1400.16 7.70529C1398.24 7.63848 1396.32 7.7721 1394.43 7.66075C1393.32 7.59394 1392.24 7.23763 1391.14 6.97039C1391.1 7.19309 1391.07 7.12628 1391.05 6.97039C1390.26 7.2599 1389.24 7.39351 1388.76 7.95026C1386.31 10.8676 1383.09 11.4466 1379.59 11.4021C1378.77 11.4021 1377.63 11.5802 1377.18 12.137C1375.58 14.2303 1374.12 13.1391 1372.51 12.0256C1371.41 12.6492 1370.35 13.4731 1369.16 13.8072C1367.9 14.1412 1366.54 13.9853 1365.21 14.0967C1363.74 14.208 1362.28 14.2971 1360.83 14.5866C1356.73 15.3661 1352.63 15.3883 1348.48 15.0766C1347.11 14.9652 1346.25 14.453 1345.81 13.1391C1344.75 13.8295 1343.81 14.4307 1342.92 14.9875C1341.65 14.4753 1340.5 14.0299 1340.79 12.4265C1340.94 12.2038 1341.07 11.8697 1341.27 11.7584C1342.68 10.9567 1344.16 10.244 1345.5 9.37552C1345.88 9.13055 1346.03 8.46246 1346.5 7.57167C1343.56 7.68302 1341.05 7.48259 1338.65 7.97253C1336.91 8.32884 1334.94 8.17295 1333.51 8.90785C1330.95 10.1772 1328.7 9.73183 1326.28 9.0192C1325.75 8.86331 1325.18 8.86331 1324.45 8.77423C1325.07 8.26203 1325.46 7.90572 1325.86 7.57167C1325.68 7.32671 1325.51 6.97039 1325.33 6.94812C1324.03 6.85904 1322.71 6.8145 1321.27 6.76996C1320.75 7.59394 1320.22 8.39565 1319.53 9.50913C1319.09 8.70743 1318.81 8.23976 1318.41 7.52713C1317.55 7.90572 1316.67 8.30657 1315.74 8.70743C1314.44 8.12841 1313.18 7.14855 1311.71 8.19522C1310.8 9.10828 1312.24 9.42006 1312.13 10.1327C1311.51 10.6672 1310.87 11.1794 1309.72 12.1815C1311.79 12.0479 1313.21 11.9588 1314.59 11.892C1314.99 12.7605 1314.4 12.9832 1313.85 13.1836C1313.43 13.3618 1313.01 13.5845 1312.59 13.5845C1308.42 13.4731 1304.48 14.6757 1300.48 15.5888C1299.49 15.8115 1298.43 15.5219 1297.77 14.3194C1298.02 14.0299 1298.28 13.7181 1298.52 13.3841C1298.68 13.1614 1298.79 12.9387 1299.05 12.4933C1294.25 12.4265 1289.55 12.3597 1284.88 12.3374C1284.46 12.3374 1283.91 12.3819 1283.62 12.6492C1281.11 14.9652 1278.22 14.5198 1275.29 13.8072C1275.18 13.7849 1275.02 13.8963 1274.84 13.9408C1274.21 14.787 1274.78 15.4551 1275.44 15.6333C1277.23 16.0787 1279.1 16.3237 1280.78 16.6132C1280.82 16.5686 1276.72 20.065 1276.56 20.1095C1276.15 20.1318 1275.44 20.3099 1275.33 20.1095C1273.98 17.7044 1271.63 19.0183 1269.58 18.4393C1268.05 19.7532 1266.64 21.8911 1263.89 20.5549C1263.84 20.2431 1263.76 19.8423 1263.71 19.4191C1263.69 19.1296 1263.71 18.8401 1263.76 18.1943C1262.67 18.417 1261.62 18.6397 1260.45 18.8847C1259.39 17.1031 1259.17 15.5888 1261.09 13.9631C1260.29 13.9408 1259.63 13.6958 1259.26 13.9408C1257.1 15.3661 1255.36 14.5866 1253.66 12.8941C1253.02 13.295 1252.47 13.8072 1251.81 14.0299C1251.3 14.1858 1250.33 14.1635 1250.17 13.8963C1248.96 11.6693 1246.43 11.6693 1244.68 10.3999C1244.68 10.3999 1244.75 10.489 1244.77 10.5113C1244.71 10.5113 1244.66 10.5558 1244.6 10.5781C1244.49 10.8453 1244.38 11.0903 1244.27 11.3798C1244.11 11.2239 1243.96 11.068 1243.8 10.9121C1244.07 10.8008 1244.33 10.6894 1244.6 10.6003C1244.62 10.5335 1244.64 10.489 1244.68 10.4445C1244.18 9.9768 1243.67 9.50913 1243.12 8.97466C1243.16 7.97253 1243.19 6.94812 1243.23 5.94599C1244 5.30016 1244.75 4.65434 1245.52 4.00852C1244.18 1.158 1241.77 2.96185 1240.17 2.16014C1239.17 3.51859 1238.34 4.67661 1237.59 5.67875C1234.7 5.99052 1234.26 4.18668 1234.19 1.87063C1233.31 2.51645 1232.65 3.00639 1231.99 3.47405C1231.32 2.91731 1230.69 2.40511 1230.07 1.8929C1229.72 2.80596 1229.36 3.71902 1228.99 4.72115C1227.64 4.98839 1226.17 4.94385 1225.15 5.61194C1224.09 6.3023 1223.26 6.88131 1222 6.48046C1220.72 7.88345 1220.15 9.93226 1217.77 10.6894C1216.71 10.2663 1215.38 9.7541 1213.36 8.97466C1215.08 7.86118 1216.38 6.97039 1217.99 5.92372C1216.82 5.0552 1216.18 4.6098 1215.43 4.05306C1216.2 3.54086 1216.93 3.09547 1217.77 2.53872C1217.48 1.71475 1217.21 0.868499 1216.97 0.133599C1216.53 0.0222509 1216.22 -0.111367 1215.98 -0.0890974C1214.37 0.11133 1212.74 0.289487 1211.15 0.601263C1209.63 0.913038 1209.15 2.3383 1210.09 3.69675C1210.49 4.29803 1211.13 4.69888 1211.9 5.41151C1209.28 7.37124 1208.59 10.3554 1207.87 13.1836C1206.08 13.1391 1206.85 11.7806 1206.24 10.9121C1204.87 10.9789 1203.35 11.0235 1201.87 11.0903C1201.33 13.3321 1200.09 14.787 1198.17 15.4551C1197.73 14.9652 1197.09 14.5198 1196.78 13.874C1195.48 11.2239 1195.52 11.2016 1193.07 12.0479C1192.94 12.0924 1192.83 12.2038 1192.61 12.3597C1192.72 12.7382 1192.96 13.1168 1192.94 13.5177C1192.9 14.3639 1191.91 14.9207 1191.4 14.4307C1190.58 13.629 1189.85 12.716 1189.11 11.8697C1190.69 9.95453 1192.94 9.9768 1194.88 9.70956C1197.39 9.35325 1199.16 8.10614 1200.9 6.45819C1199.4 4.89931 1198.1 7.19309 1196.51 6.19095C1196.73 5.63421 1196.89 4.6098 1197.24 4.52073C1198.32 4.23122 1199.36 3.54086 1200.61 3.89717C1200.97 4.00852 1201.5 3.45178 1201.91 3.22908C1201.5 2.00425 1200.61 2.24922 1199.93 2.09333C1198.94 1.87063 1197.92 1.46978 1196.93 1.51432C1194.42 1.58113 1191.93 1.84836 1189.44 2.07106C1188.18 2.18241 1187.17 2.80596 1186.77 4.07533C1186.59 4.6098 1186.53 5.25562 1186.68 5.7901C1187.56 8.75196 1187.63 9.10828 1186.99 12.3374C1185.93 12.2483 1184.87 12.1592 1183.81 12.0479C1183.81 12.0479 1183.81 12.0479 1183.81 12.0701C1183.57 12.0256 1183.31 11.9588 1183.04 11.9143C1183.26 11.9588 1183.48 11.9811 1183.73 12.0479C1183.75 12.0479 1183.79 12.0479 1183.81 12.0479C1184.54 10.0659 1183.81 8.64062 1182.09 7.61621V7.68302C1180.88 8.19522 1179.58 8.59608 1178.52 9.30871C1177.51 9.99907 1177.2 11.1794 1177.82 12.6937C1176.76 12.8273 1175.79 12.9387 1174.86 13.05C1174.66 12.6269 1174.42 12.3374 1174.47 12.137C1174.97 10.3702 1175.05 8.68516 1174.73 7.08174C1176.32 5.21109 1178.63 6.48046 1180.57 5.99052C1180.53 5.25563 1180.62 4.78796 1180.46 4.40938C1180.26 3.87491 1179.89 3.40724 1179.58 2.91731C1176.67 3.22908 1173.89 3.51859 1171.07 3.8081C1170.78 4.34257 1170.52 4.85477 1170.26 5.36697C1168.62 5.72329 1167.76 5.01066 1167.85 3.42951C1167.26 3.3627 1166.93 3.22908 1166.68 3.29589C1163.27 4.36484 1159.81 4.96612 1156.23 4.45392C1154.27 4.16441 1152.9 6.23549 1150.79 5.70102C1149.11 5.30016 1147.3 5.23336 1145.56 5.30016C1141.75 5.43378 1138.05 6.92585 1134.14 6.14641C1131.01 7.59394 1127.4 6.43592 1124.27 8.0616C1123.54 8.44019 1122.55 8.32884 1121.69 8.44019C1120.83 8.55154 1119.9 8.57381 1119.09 8.86331C1116.68 9.68729 1116.68 9.70956 1114.7 9.10828C1114.26 9.86545 1113.84 10.6226 1113.31 11.5579C1112.71 11.2907 1112.1 11.2016 1111.74 10.823C1110.64 9.66502 1109.36 9.55367 1108.11 10.1995C1105.75 11.4466 1103.21 11.2907 1100.74 11.2907C1098.52 11.2907 1096.33 11.2907 1094.13 11.647C1091.46 12.0701 1088.82 11.9143 1086.19 10.8008C1085.55 11.313 1084.96 11.8474 1084.1 12.5601C1084.52 11.0235 1084.82 9.77637 1085.22 8.2843C1083.81 8.0616 1082.69 7.90572 1081.39 7.72756C1081.1 8.08387 1080.79 8.39565 1080.57 8.77423C1079.75 10.155 1079.25 11.8252 1077.35 11.9588C1075.7 11.4021 1074.07 10.8453 1072.46 10.2886C1072.55 10.9567 1072.63 11.6248 1072.72 12.3374C1070.85 12.6269 1069 12.8941 1067.17 13.2059C1064.56 13.6513 1063.97 13.2059 1063.35 10.4445C1063.2 9.79864 1062.82 9.19736 1062.54 8.46246C1060.77 10.2886 1060.73 10.1995 1058.44 10.6894C1057.07 10.9789 1055.79 11.6248 1054.31 12.1592C1053.98 11.2239 1053.7 10.4445 1053.34 9.46459C1051.64 10.4445 1050.06 11.3798 1048.36 12.3819C1046.77 12.0033 1045.05 11.6025 1043.36 11.1794C1043.36 11.2016 1043.4 11.2462 1043.42 11.2684C1043.36 11.2462 1043.27 11.2239 1043.2 11.1794C1042.67 11.2684 1042.14 11.3575 1041.61 11.4021C1041.5 11.4021 1041.39 11.2462 1041.28 11.1571C1041.44 10.9789 1041.66 10.6449 1041.77 10.6672C1042.25 10.7785 1042.72 11.0012 1043.18 11.1794C1043.22 11.1794 1043.27 11.1794 1043.31 11.1794C1043.31 11.1794 1043.31 11.1794 1043.33 11.1794C1041.72 8.08387 1038.9 7.88345 1035.82 7.9948C1035.48 8.66289 1035.18 9.30871 1034.74 10.1772C1033.26 9.99907 1031.69 9.79864 1030.13 9.62048C1029.42 10.5781 1029.93 11.0235 1030.72 11.2462C1032.11 11.6248 1033.7 11.2462 1034.93 12.3597C1033.48 13.4731 1033.5 13.4286 1032.55 13.2727C1030.97 12.9832 1029.33 12.4487 1027.79 12.6492C1026.11 12.8496 1024.73 13.6736 1022.79 12.8273C1021.33 12.1815 1019.37 12.6046 1017.65 11.9811C1016.28 11.5134 1014.85 11.3798 1013.35 11.9365C1011.65 12.5378 1010 12.4042 1008.39 11.1794C1006.67 9.84318 1004.55 9.86545 1002.46 10.2218C1000.43 10.5781 998.402 10.9567 996.352 11.2239C995.669 11.313 994.875 11.0457 994.831 9.77637C996.109 9.33098 997.587 10.2663 998.909 9.30871C999.924 8.55154 1001.33 8.35111 1002.57 7.88345C1003.16 6.70315 1002.48 6.0796 1001.51 5.99052C999.306 5.81237 997.08 5.58967 994.941 5.87918C992.692 6.19095 990.576 6.03506 988.415 5.47832C987.577 5.25563 986.696 5.27789 985.571 5.16655C985.704 6.23549 985.792 7.0372 985.902 7.92799C983.984 7.97253 982.132 8.03933 980.28 8.01706C978.913 8.01706 977.789 8.30657 976.708 9.37552C975.606 10.4667 974.195 10.6449 972.674 9.70956C971.307 8.86331 969.764 8.32884 968.353 7.66075C966.92 8.08387 967.912 11.0012 965.619 10.3777C965.531 9.39778 965.487 8.46246 965.354 7.52713C965.244 6.70315 966.633 6.0796 965.443 4.89931C964.936 5.01066 964.274 5.14428 963.613 5.32243C960.769 6.12414 957.859 6.525 954.904 6.54727C951.73 6.54727 951.597 6.83677 952.104 10.2886C952.149 10.2886 952.171 10.2663 952.193 10.244C952.237 10.2663 952.303 10.2886 952.369 10.3331C952.788 10.3331 953.207 10.3331 953.626 10.3554C953.582 10.5335 953.56 10.7117 953.515 10.8899C953.141 10.7117 952.744 10.5113 952.369 10.3331C952.281 10.3331 952.193 10.3331 952.104 10.3331C951.641 10.6226 951.201 10.8899 950.495 11.3352C950.341 9.7541 950.208 8.48473 950.076 7.28217C948.577 6.45819 947.364 5.61194 945.535 6.56954C944.763 6.97039 943.396 6.21322 942.36 5.96825C941.375 7.89829 940.853 9.96937 940.795 12.1815C939.67 11.2239 940.111 9.99907 939.979 8.88558C939.736 6.94812 938.722 6.28003 936.914 6.97039C936.275 7.21536 935.658 7.72756 935.195 8.23976C934.313 9.21963 933.607 8.57381 932.858 8.12841C932.968 7.63848 933.1 7.17082 933.211 6.72542C931.204 6.65861 929.308 6.48046 927.434 6.54727C926.619 6.54727 925.715 6.92585 925.053 7.41578C924.26 8.01706 923.466 8.23976 922.606 7.86118C921.261 7.28217 921.305 8.66289 920.732 9.10828C920.424 9.10828 920.093 9.17509 919.85 9.06374C916.852 7.72756 916.279 7.97253 915.11 11.1571C914.89 11.7509 914.221 12.137 913.104 12.3151C913.148 11.3352 913.17 10.3777 913.214 9.48686C911.715 8.39565 910.238 8.86331 908.805 8.97466C907.35 9.10828 905.873 9.33098 904.528 8.01706C905.807 7.08174 908.144 7.92799 908.232 5.27789C907.769 5.18882 907.218 4.87704 906.755 4.96612C904.859 5.27789 903.007 5.76783 901.133 6.10187C898.686 6.56954 896.282 6.65862 893.725 6.41365C890.727 6.12414 887.618 6.14641 884.598 6.05733C881.225 5.96825 877.829 5.83464 874.567 6.43592C872.384 6.83677 870.267 7.08174 868.063 7.01493C867.512 7.01493 866.806 7.10401 866.453 6.8145C865.373 5.96825 864.249 6.12414 863.08 6.25776C859.707 6.63634 856.334 6.94812 852.983 7.43805C851.065 7.72756 849.235 7.83891 847.295 7.43805C845.906 7.14855 844.341 7.2599 842.93 7.5494C839.226 8.35111 835.566 9.48686 831.84 10.244C830.628 10.489 830.363 12.3374 828.886 11.7361C827.563 11.1794 826.681 12.3151 825.579 12.6046C824.146 12.9609 822.713 13.2059 821.258 13.4954L821.39 13.4286C820.486 13.8517 819.604 14.5421 818.656 14.6312C817.157 14.7648 815.901 15.277 814.534 15.7892C813.123 16.3237 811.359 15.9005 809.772 15.9228C808.317 15.9228 806.861 15.6333 805.715 17.0586C804.855 18.1275 803.246 16.0341 802.21 17.9048C801.46 19.241 799.718 18.417 798.462 18.4615C795.618 18.5952 793.413 17.4149 790.922 15.0097C788.254 15.2547 785.564 14.9652 783.272 12.6714C784.087 12.3597 784.683 12.1147 785.278 11.892C784.661 10.1327 784.683 10.0881 781.684 8.99693C781.486 9.46459 781.265 9.93226 781.045 10.3999C778.818 10.0659 776.503 9.2419 774.541 11.2016C772.513 11.2684 770.396 12.1147 768.478 11.1125C766.957 10.3331 765.678 10.3777 764.334 11.2684C763.297 11.9811 762.261 12.4487 761.093 11.5802C760.872 11.4243 760.497 11.2907 760.255 11.3798C759.682 11.5579 759.153 11.6025 758.624 11.647V9.48686C757.852 10.244 757.014 10.823 756.088 11.2016C755.184 10.823 754.324 10.244 753.553 9.48686V11.647C753.024 11.6248 752.495 11.5579 751.921 11.3798C751.701 11.2907 751.304 11.4243 751.106 11.5802C749.915 12.4487 748.901 11.9811 747.865 11.2684C746.52 10.3777 745.241 10.3331 743.72 11.1125C741.802 12.1147 739.708 11.2684 737.679 11.2016C735.717 9.21963 733.424 10.0659 731.175 10.3999C730.955 9.93226 730.757 9.44232 730.536 8.99693C727.538 10.0659 727.56 10.1327 726.943 11.892C727.538 12.137 728.155 12.3597 728.949 12.6714C726.634 14.9652 723.944 15.2547 721.277 15.0097C718.785 17.4149 716.581 18.5952 713.715 18.4615C712.48 18.417 710.716 19.241 709.967 17.9048C708.93 16.0341 707.299 18.1498 706.439 17.0586C705.315 15.6333 703.816 15.9451 702.383 15.9228C700.773 15.9228 699.032 16.3237 697.599 15.7892C696.232 15.277 694.953 14.7648 693.476 14.6312C692.528 14.5421 691.646 13.8517 690.742 13.4286L690.852 13.4954C689.419 13.2059 687.964 12.9387 686.553 12.6046C685.451 12.3151 684.591 11.1794 683.246 11.7361C681.769 12.3374 681.505 10.489 680.292 10.244C676.566 9.48686 672.928 8.35111 669.203 7.5494C667.792 7.2599 666.226 7.12628 664.837 7.43805C662.897 7.86118 661.067 7.72756 659.149 7.43805C655.798 6.94812 652.403 6.63634 649.052 6.25776C647.861 6.12414 646.737 5.96825 645.679 6.8145C645.304 7.10401 644.599 7.01493 644.047 7.01493C641.865 7.08174 639.726 6.8145 637.544 6.43592C634.259 5.83464 630.886 5.96825 627.512 6.05733C624.492 6.14641 621.361 6.12414 618.385 6.41365C615.828 6.65862 613.447 6.56954 610.977 6.10187C609.103 5.76783 607.229 5.27789 605.356 4.96612C604.87 4.87704 604.341 5.16655 603.878 5.27789C603.967 7.92799 606.304 7.08174 607.582 8.01706C606.237 9.33098 604.782 9.10828 603.305 8.97466C601.872 8.86331 600.395 8.39565 598.918 9.48686C598.94 10.3777 598.984 11.3352 599.028 12.3151C597.911 12.137 597.242 11.7509 597.022 11.1571C595.831 7.97253 595.28 7.72756 592.282 9.06374C592.039 9.17509 591.709 9.08601 591.4 9.10828C590.849 8.66289 590.893 7.28217 589.548 7.86118C588.666 8.23976 587.917 7.9948 587.101 7.41578C586.44 6.92585 585.536 6.56954 584.742 6.54727C582.846 6.48046 580.972 6.65861 578.966 6.72542C579.076 7.17082 579.208 7.66075 579.318 8.12841C578.569 8.57381 577.863 9.21963 576.982 8.23976C576.519 7.70529 575.901 7.21536 575.262 6.97039C573.454 6.28003 572.44 6.97039 572.197 8.88558C572.065 9.99907 572.484 11.2239 571.382 12.1815C571.308 9.96937 570.779 7.89829 569.794 5.96825C568.758 6.19095 567.391 6.97039 566.642 6.56954C564.812 5.58967 563.599 6.45819 562.1 7.28217C561.968 8.507 561.836 9.7541 561.681 11.3352C560.998 10.9121 560.535 10.6226 560.094 10.3331C560.094 10.3331 559.917 10.3554 559.829 10.3554C559.455 10.5335 559.058 10.734 558.683 10.9121C558.639 10.734 558.595 10.5558 558.573 10.3777C558.992 10.3777 559.41 10.3554 559.829 10.3554C559.895 10.3331 559.94 10.2886 560.006 10.2663C560.028 10.2663 560.072 10.3108 560.094 10.3108C560.601 6.85904 560.447 6.59181 557.272 6.56954C554.318 6.56954 551.43 6.14641 548.564 5.3447C547.902 5.16655 547.219 5.03293 546.734 4.92158C545.543 6.10187 546.91 6.70315 546.822 7.5494C546.69 8.48473 546.645 9.42006 546.557 10.3999C544.264 11.0012 545.279 8.08387 543.846 7.68302C542.412 8.35111 540.891 8.88558 539.524 9.73183C538.003 10.6672 536.592 10.489 535.49 9.39778C534.432 8.32884 533.285 8.03933 531.918 8.03933C530.066 8.03933 528.215 7.97253 526.296 7.95026C526.407 7.0372 526.495 6.23549 526.627 5.18882C525.503 5.32243 524.621 5.27789 523.783 5.50059C521.623 6.05733 519.506 6.21322 517.257 5.90145C515.097 5.61194 512.848 5.83464 510.665 6.01279C509.717 6.0796 509.034 6.72542 509.629 7.90572C510.864 8.37338 512.275 8.57381 513.289 9.33098C514.612 10.3108 516.089 9.37552 517.368 9.79864C517.323 11.068 516.53 11.313 515.846 11.2462C513.818 11.0012 511.79 10.6003 509.739 10.244C507.645 9.88772 505.529 9.86545 503.809 11.2016C502.2 12.4487 500.546 12.5823 498.848 11.9588C497.349 11.4021 495.894 11.5357 494.549 12.0033C492.83 12.6269 490.868 12.1815 489.412 12.8496C487.472 13.6958 486.083 12.8719 484.408 12.6714C482.865 12.4933 481.233 13.0055 479.646 13.295C478.72 13.4731 478.72 13.4954 477.265 12.3819C478.499 11.2907 480.087 11.6693 481.476 11.2684C482.269 11.0457 482.799 10.6003 482.071 9.64275C480.528 9.82091 478.94 10.0213 477.463 10.1995C477.022 9.33098 476.714 8.66289 476.383 8.01706C473.296 7.90572 470.474 8.10614 468.865 11.2016C468.865 11.2016 468.865 11.2016 468.887 11.2016C468.931 11.2016 468.975 11.2016 469.019 11.2016C469.504 11.0235 469.967 10.8008 470.452 10.6894C470.563 10.6672 470.783 11.0012 470.937 11.1794C470.827 11.2684 470.717 11.4466 470.607 11.4243C470.078 11.3798 469.549 11.2684 469.019 11.2016C468.953 11.2239 468.865 11.2684 468.799 11.2907C468.799 11.2462 468.843 11.2239 468.865 11.2016C467.145 11.6248 465.448 12.0256 463.86 12.4042C462.141 11.4021 460.553 10.4667 458.856 9.48686C458.503 10.4667 458.239 11.2462 457.908 12.1815C456.431 11.647 455.152 11.0012 453.785 10.7117C451.47 10.2218 451.448 10.3108 449.685 8.48473C449.376 9.21963 449.023 9.82091 448.869 10.4667C448.251 13.2282 447.656 13.6736 445.055 13.2282C443.225 12.9164 441.373 12.6492 439.499 12.3597C439.587 11.6693 439.675 11.0012 439.764 10.3108C438.154 10.8676 436.523 11.4243 434.869 11.9811C432.973 11.8475 432.466 10.1772 431.65 8.7965C431.43 8.41792 431.121 8.10614 430.835 7.74983C429.534 7.92799 428.41 8.10614 426.999 8.30657C427.395 9.79864 427.704 11.0457 428.123 12.5823C427.263 11.8474 426.668 11.3352 426.029 10.823C423.383 11.9365 420.737 12.0924 418.07 11.6693C415.887 11.3352 413.704 11.2907 411.456 11.313C409.009 11.313 406.451 11.4689 404.092 10.2218C402.835 9.55367 401.535 9.66502 400.454 10.8453C400.102 11.2239 399.484 11.313 398.867 11.5802C398.338 10.6226 397.897 9.88772 397.478 9.13055C395.494 9.73183 395.494 9.70956 393.091 8.88558C392.275 8.61835 391.371 8.59608 390.489 8.46246C389.63 8.35111 388.637 8.46246 387.91 8.08387C384.779 6.43592 381.164 7.61621 378.033 6.16868C374.153 6.92585 370.427 5.43378 366.613 5.32243C364.871 5.25563 363.063 5.32243 361.388 5.72329C359.271 6.25776 357.905 4.18668 355.942 4.47619C352.371 4.98839 348.887 4.38711 345.492 3.31816C345.228 3.22908 344.919 3.38497 344.324 3.45178C344.412 5.0552 343.552 5.74556 341.921 5.38924C341.656 4.87704 341.392 4.36484 341.127 3.83037C338.283 3.54086 335.505 3.25135 332.617 2.93958C332.308 3.45178 331.934 3.89717 331.735 4.43165C331.581 4.81023 331.647 5.27789 331.625 6.01279C333.565 6.50273 335.902 5.23336 337.467 7.10401C336.96 9.5314 336.982 9.5314 337.732 12.1592C337.798 12.3597 337.533 12.6492 337.335 13.0723C336.409 12.9609 335.439 12.8496 334.381 12.716C334.998 11.2016 334.712 10.0213 333.675 9.33098C332.595 8.61835 331.316 8.21749 330.104 7.70529V7.63848C328.362 8.66289 327.635 10.0881 328.384 12.0701C328.406 12.0701 328.45 12.0701 328.472 12.0701C328.693 12.0256 328.935 11.9811 329.156 11.9365C328.891 11.9811 328.649 12.0479 328.384 12.0924C328.384 12.0924 328.384 12.0924 328.384 12.0701C327.304 12.1815 326.246 12.2706 325.187 12.3597C324.548 9.15282 324.592 8.7965 325.496 5.81237C325.65 5.30016 325.584 4.63207 325.408 4.0976C325.011 2.82823 323.975 2.20468 322.74 2.09333C320.249 1.84836 317.758 1.6034 315.244 1.53659C314.252 1.51432 313.238 1.8929 312.246 2.1156C311.563 2.27149 310.703 2.04879 310.284 3.25135C310.703 3.47405 311.232 4.03079 311.585 3.91944C312.841 3.56313 313.877 4.25349 314.958 4.543C315.333 4.63207 315.465 5.65648 315.707 6.21322C314.098 7.21536 312.819 4.92158 311.298 6.48046C313.04 8.12841 314.803 9.39778 317.317 9.73183C319.235 9.99907 321.506 9.99907 323.093 11.892C322.321 12.7382 321.616 13.6513 320.8 14.453C320.293 14.9429 319.323 14.3862 319.257 13.5399C319.235 13.1391 319.477 12.7382 319.588 12.3819C319.367 12.226 319.257 12.1147 319.125 12.0701C316.677 11.2239 316.699 11.2462 315.421 13.8963C315.112 14.5198 314.473 14.9875 314.032 15.4774C312.106 14.8093 310.872 13.3544 310.328 11.1125C308.851 11.0457 307.308 11.0012 305.963 10.9344C305.345 11.8029 306.117 13.1614 304.331 13.2059C303.604 10.3777 302.898 7.39351 300.297 5.43378C301.046 4.72115 301.686 4.3203 302.105 3.71902C303.053 2.36057 302.568 0.935308 301.046 0.623532C299.459 0.311757 297.828 0.133599 296.218 -0.0668278C295.954 -0.0890974 295.667 0.0445206 295.226 0.155869C294.984 0.890768 294.697 1.71475 294.432 2.56099C295.27 3.11774 295.998 3.56313 296.769 4.07533C296.02 4.63207 295.38 5.07747 294.212 5.94599C295.821 6.99266 297.122 7.86118 298.842 8.99693C296.813 9.77637 295.491 10.3108 294.432 10.7117C292.051 9.95453 291.478 7.90572 290.199 6.50273C288.943 6.90358 288.083 6.32457 287.047 5.63421C286.033 4.96612 284.555 5.01066 283.211 4.74342C282.814 3.74129 282.461 2.82823 282.13 1.91517C281.491 2.42738 280.874 2.96185 280.212 3.49632C279.573 3.02866 278.912 2.53872 278.008 1.8929C277.942 4.20895 277.523 6.01279 274.612 5.70102C273.863 4.69888 273.025 3.51859 272.033 2.18241C270.424 2.98412 268.021 1.18027 266.676 4.03079C267.447 4.67661 268.197 5.32243 268.969 5.96825C269.013 6.97039 269.035 8.01707 269.079 8.99693C268.528 9.50913 268.021 9.9768 267.513 10.4667C267.536 10.5113 267.558 10.5558 267.58 10.6226C267.844 10.734 268.109 10.8453 268.373 10.9344C268.219 11.0903 268.065 11.2462 267.91 11.4021C267.8 11.1348 267.69 10.8676 267.58 10.6003C267.513 10.6003 267.469 10.5558 267.403 10.5335C267.425 10.5113 267.469 10.4667 267.513 10.4445C265.75 11.7138 263.236 11.7138 262.024 13.9408C261.87 14.208 260.899 14.2303 260.392 14.0744C259.731 13.8517 259.18 13.3395 258.54 12.9387C256.821 14.6312 255.079 15.4329 252.941 13.9853C252.588 13.7404 251.904 13.9853 251.111 14.0076C253.029 15.611 252.808 17.1476 251.75 18.9292C250.582 18.6842 249.523 18.4615 248.443 18.2388C248.465 18.8847 248.509 19.1519 248.487 19.4637C248.443 19.8868 248.355 20.2654 248.311 20.5994C245.555 21.9133 244.144 19.7977 242.623 18.4838C240.573 19.0628 238.214 17.7712 236.869 20.154C236.781 20.3322 236.075 20.154 235.634 20.154C235.48 20.1318 231.379 16.6132 231.423 16.6577C233.121 16.3682 234.973 16.1232 236.781 15.6778C237.442 15.4997 238.015 14.8539 237.376 13.9853C237.221 13.9408 237.067 13.8295 236.935 13.8517C234.003 14.5644 231.137 15.0097 228.601 12.6937C228.315 12.4265 227.763 12.3819 227.345 12.3819C222.671 12.4042 217.975 12.471 213.169 12.5378C213.433 12.9832 213.543 13.2059 213.698 13.4286C213.94 13.7626 214.205 14.0744 214.447 14.3639C213.786 15.5665 212.75 15.856 211.736 15.6333C207.745 14.7202 203.799 13.5177 199.654 13.629C199.235 13.629 198.794 13.4063 198.375 13.2282C197.824 13.0277 197.207 12.805 197.626 11.9365C198.993 12.0256 200.404 12.0924 202.476 12.226C201.308 11.2462 200.69 10.7117 200.073 10.1772C199.963 9.46459 201.396 9.13055 200.492 8.23976C198.993 7.19309 197.736 8.19522 196.435 8.75196C195.531 8.35111 194.649 7.95026 193.768 7.57167C193.371 8.2843 193.084 8.75196 192.643 9.55367C191.938 8.44019 191.409 7.63848 190.902 6.8145C189.468 6.85904 188.146 6.90358 186.845 6.99266C186.669 6.99266 186.514 7.37124 186.316 7.61621C186.713 7.95026 187.132 8.30657 187.727 8.81877C186.999 8.90785 186.426 8.90785 185.897 9.06374C183.472 9.7541 181.201 10.1995 178.666 8.95239C177.211 8.23976 175.248 8.37338 173.529 8.01706C171.148 7.52713 168.634 7.72756 165.68 7.61621C166.165 8.52927 166.298 9.17509 166.672 9.42005C168.039 10.2886 169.516 11.0012 170.905 11.8029C171.126 11.9365 171.236 12.2483 171.412 12.471C171.677 14.0744 170.53 14.4975 169.252 15.032C168.37 14.4753 167.422 13.8517 166.364 13.1836C165.923 14.4975 165.063 15.0097 163.696 15.1211C159.551 15.4329 155.451 15.4106 151.35 14.6312C149.895 14.3639 148.418 14.2526 146.963 14.1412C145.64 14.0299 144.251 14.1858 143.016 13.8517C141.826 13.5177 140.768 12.6714 139.665 12.0701C138.056 13.1836 136.623 14.2748 134.991 12.1815C134.572 11.6248 133.404 11.4466 132.588 11.4466C129.083 11.4689 125.864 10.9121 123.417 7.9948C122.932 7.41578 121.94 7.30444 121.146 7.01493C121.102 7.17082 121.08 7.23763 121.058 7.01493C119.956 7.2599 118.875 7.63848 117.773 7.70529C115.877 7.81664 113.959 7.70529 112.041 7.74983C111.578 7.7721 111.115 8.19522 110.343 8.59608C111.556 9.90999 112.526 10.9789 113.628 12.2038C111.864 12.716 110.365 13.4954 108.866 13.4954C106.882 13.4954 104.876 12.8719 102.605 12.4487C101.172 9.62048 98.4822 8.84104 95.3516 8.75196C93.169 8.68516 90.9863 8.32884 88.7596 8.10614C88.4069 8.70743 88.0541 9.30871 87.6132 10.0881C85.166 9.90999 82.6748 9.64275 80.1835 9.5314C77.56 9.42006 77.56 9.48686 75.2892 8.26203C73.9664 9.59821 73.8782 10.3331 74.9585 10.9567C76.7663 12.0479 78.6182 12.9164 80.8229 11.9588C81.2858 11.7361 81.9693 11.4911 82.2559 12.471C81.9031 12.6714 81.5283 12.8496 81.1756 13.0946C79.9851 13.8963 78.4418 13.6513 77.3174 15.0097C76.3915 16.101 74.3853 15.7446 73.2388 17.2813C72.6877 18.0384 71.1003 18.3502 69.998 18.2834C66.4926 18.1052 62.921 18.7511 59.5258 17.2813C58.6219 16.8804 57.4314 16.6577 56.5055 16.9027C54.4992 17.4371 53.1323 16.435 51.6773 15.3661L51.7875 15.4774C50.9497 15.5219 50.134 15.5442 49.0317 15.5888C48.9655 13.9185 48.9214 12.471 48.8553 10.6003C47.29 11.3352 46.2979 11.2684 46.1876 9.50913C46.1656 9.19736 45.416 8.93012 45.0853 8.70743C43.6743 9.68729 44.9971 11.6693 43.2995 12.2038C42.7925 11.7361 42.3074 11.313 41.6681 10.734C41.7122 11.8252 41.7342 12.6937 41.7563 13.3618C43.4759 13.8072 44.9971 14.208 46.8931 14.698C43.4759 15.9228 43.4759 15.8783 41.0287 15.3215C40.3233 15.1656 39.5737 15.2547 38.8682 15.1879C36.0903 14.9207 33.3345 14.6757 30.5566 14.3417C30.2259 14.3194 29.9393 13.8963 29.5425 13.5845C31.5046 11.7584 33.7313 14.5198 35.6494 12.716C34.6573 8.88558 31.9896 6.99266 28.2417 6.45819C26.5441 7.10401 29.2338 9.73183 26.6103 9.88772C26.478 9.66502 26.2575 9.46459 26.2134 9.2419C26.1693 8.97466 26.3678 8.66289 26.3237 8.37338C25.993 6.0796 25.6402 5.61194 23.3474 5.23336C21.297 4.89931 19.2467 4.78796 17.1743 4.56526C13.8012 4.18668 10.4501 3.69675 7.05493 3.45178C4.78413 3.27362 2.51333 3.22908 0.220488 3.18455V10.8676C1.1244 11.313 2.09445 11.4911 3.30701 11.2016C4.43139 10.9344 5.93056 11.1571 6.74628 12.8496C6.12898 13.1836 5.666 13.6736 5.18097 13.6958C3.52748 13.8072 1.87398 13.7181 0.220488 13.6068V54.8057C0.970073 54.3825 1.69761 53.8703 2.29287 53.1132C2.93222 52.3337 3.74794 52.2224 4.6739 52.2446C5.84237 52.2669 7.01084 52.0888 8.15726 52.1556C9.12731 52.2001 10.0974 52.4673 11.332 52.69C10.869 53.4472 10.5824 53.9149 10.2737 54.4493C10.8469 55.0061 11.4422 55.6074 11.9934 56.1864C15.3224 53.3359 15.3224 53.3804 19.2467 53.4027C26.4559 53.4472 33.6652 53.5363 40.8965 53.4027C45.4822 53.3136 49.8915 53.759 54.1244 55.6519C54.7197 55.8969 55.5575 55.6074 56.2629 55.6519C56.4614 55.6519 56.6598 55.9637 56.8582 56.1196C56.8362 56.6763 56.7921 57.2331 56.77 57.7675C58.1149 58.2129 58.8203 57.5894 59.3715 56.5872C60.3416 54.7389 61.7746 54.3825 63.7808 54.8279C66.2501 55.3624 68.7634 56.0082 71.3428 55.2511C71.8719 55.0952 72.4672 55.1842 73.0625 55.162C73.7679 56.1196 74.3853 56.9436 75.0026 57.7675C75.3773 56.9881 76.0167 56.8099 76.7663 57.0994C77.3836 57.3221 77.6261 57.8343 77.4277 58.5024C77.2293 59.1482 76.5679 59.7941 77.3615 60.4844C77.8466 60.9076 78.53 60.1281 78.7725 58.7697C78.9489 57.8121 78.9709 56.8322 79.0591 55.8301C80.1174 55.8078 81.0654 55.5628 81.8811 55.7633C85.0558 56.5872 88.4069 55.2065 91.5375 56.5427C92.0005 56.7431 92.728 56.5427 93.2571 56.32C96.2555 55.0952 98.7027 56.0528 100.907 58.1684C101.194 58.4579 101.635 58.6138 102.164 58.9033C103.553 58.057 105.008 57.8343 106.728 58.0793C108.403 58.3243 110.211 57.7675 111.953 57.5671C112.812 57.478 113.672 57.3889 114.731 57.2776C114.973 58.4133 115.149 59.3709 115.348 60.3508C115.965 59.9945 116.538 59.6605 116.913 59.4378C120.419 60.618 123.726 61.7093 127.01 62.8005C127.187 62.4442 127.407 62.1992 127.451 61.932C127.606 61.0857 127.385 59.9054 127.87 59.46C128.532 58.8142 129.678 58.547 130.67 58.4356C131.486 58.3243 132.368 58.6583 133.228 58.7251C133.448 58.7474 133.713 58.5024 133.955 58.3688C134.198 57.5671 133.338 56.565 134.815 55.5851C136.292 57.6562 138.188 59.4155 141.01 59.7495C143.545 60.039 146.059 60.6626 148.793 59.6159C147.889 58.9256 147.558 58.2797 148.285 57.6339C149.741 56.2977 151.416 55.4515 153.378 55.0729C154.657 54.8502 156.09 54.672 157.126 53.9594C160.345 51.8215 163.872 52.0888 167.4 52.356C168.833 52.4451 170.332 52.8682 170.993 54.5384C171.126 54.8947 171.743 55.3624 171.986 55.2956C173.882 54.6498 175.315 56.1196 177.034 56.32C179.063 56.5427 181.047 57.1662 183.075 57.6116C184.508 59.705 186.955 58.5247 188.763 59.3709C189.226 59.5936 189.314 60.4844 190.108 60.1058C190.417 59.6605 190.703 59.2151 190.857 58.9701C192.864 60.4176 194.561 61.7983 196.435 62.9341C198.111 63.9585 199.941 63.5131 201.197 61.9988C201.815 61.2193 202.3 60.3063 202.895 59.3709C205.827 59.7718 208.671 57.5003 211.515 59.6159C211.846 59.8609 212.639 59.4155 213.213 59.4155C215.395 59.4155 217.534 59.4155 219.606 58.3911C220.598 57.9011 221.899 58.0125 223.068 57.968C225.03 57.8566 225.471 57.5226 225.691 55.7187C225.735 55.2956 225.559 54.8502 225.559 54.4048C225.559 54.1598 225.691 53.8926 225.801 53.5586C226.463 53.514 227.124 53.4918 228.028 53.4695C227.984 54.6943 227.83 55.7187 227.962 56.7209C228.138 58.0125 228.954 57.9902 230.012 57.2108C229.924 56.2755 229.792 55.2511 229.77 54.2044C229.77 53.0686 230.387 52.2001 231.423 51.777C232.437 51.3539 233.033 52.0219 233.562 52.8237C233.848 53.2691 234.422 53.5363 234.708 53.759C237.861 52.9573 239.514 49.9286 242.733 49.5723C243.218 49.9954 243.769 50.5076 244.342 50.953C244.894 51.3984 245.445 51.7993 245.952 52.2001C247.789 50.5967 249.391 50.2033 250.758 51.0198C251.243 50.5299 251.75 50.0177 252.125 49.6168C253.271 49.7504 254.286 49.9063 255.278 50.0177C255.696 50.0622 256.314 49.9063 256.534 50.1513C259.18 52.8682 262.399 52.2224 265.639 51.9774C267.513 51.8438 269.432 52.0888 271.416 52.1778C272.408 54.004 273.532 55.5183 275.737 55.6519C277.28 55.741 277.346 57.1662 277.743 58.3243C279.904 58.7029 282.064 59.2151 284.247 59.4378C285.834 59.6159 287.135 59.8386 287.466 61.7761C287.554 62.266 288.105 62.9564 288.568 63.0677C290.244 63.4908 291.809 64.6934 293.661 64.003C293.881 64.003 294.124 64.0476 294.344 64.0698C294.124 64.0698 293.881 64.0698 293.639 64.0698C295.336 65.2279 296.703 67.2321 299.327 66.6977C298.886 65.6955 298.246 64.9161 298.268 64.1367C298.313 62.8005 299.525 63.3349 300.319 63.2681C300.451 63.2681 300.649 63.1791 300.694 63.0677C301.443 61.3529 302.898 61.5979 304.397 61.5311C305.963 61.4643 307.704 61.2193 308.961 60.4176C310.262 59.5936 311.585 59.2373 312.996 58.881C315.773 58.1907 318.485 58.7251 321.219 59.1037C322.365 57.8121 323.82 58.0793 325.231 58.4356C327.37 58.9478 329.509 59.5046 331.956 60.1504C332.727 61.8874 333.984 63.3349 336.563 62.5332C337.115 62.3774 338.129 62.7559 338.548 63.2459C339.452 64.2703 340.554 64.3148 341.722 64.493C342.56 64.6043 343.354 65.1388 344.147 65.4506C344.831 67.6107 344.346 70.439 347.499 70.9066C347.719 70.2385 347.873 69.7263 348.028 69.281C350.343 70.3276 352.591 71.3298 354.862 72.3319C355.876 72.7773 361.564 73.245 362.556 73C362.689 72.9554 362.821 72.8441 362.953 72.7996C363.659 72.4878 363.769 71.6193 363.108 70.9734C362.755 70.6394 362.248 70.439 361.697 70.1272C362.358 69.5259 362.799 68.791 363.394 68.6797C364.078 68.5461 364.849 68.9246 365.114 67.9225C364.849 67.299 364.585 66.6977 364.32 66.0741C366.37 65.0497 367.296 67.1653 369.126 67.4771C369.655 67.0985 370.339 66.5418 371.11 66.1632C371.75 65.8291 372.543 65.5619 373.205 65.651C375.233 65.9628 377.261 66.4082 379.246 66.9649C379.797 67.1208 380.194 67.8334 380.657 68.3011C381.935 67.1431 382.861 65.8737 384.096 65.2501C385.485 64.5598 387.16 64.4484 388.748 64.0476C388.571 63.1791 388.439 62.511 388.307 61.9097C392.165 58.057 396.508 55.5628 400.697 55.5628C405.172 55.5628 409.516 54.6498 413.903 54.1376C421.685 53.2245 429.38 53.3804 437.03 55.1397C437.89 55.3401 438.793 55.4738 439.587 55.8078C441.682 56.654 443.71 57.4335 445.959 56.3423C446.245 56.2086 446.796 56.4091 447.083 56.654C449.993 59.0146 453.168 59.2373 456.585 57.968C458.569 57.2108 460.509 56.8767 462.427 58.3911C463.045 58.8587 464.125 58.8142 464.985 58.8587C467.873 58.9924 470.739 58.9478 473.627 59.5046C475.876 59.9277 478.279 60.284 480.594 59.4823C481.123 59.3041 481.939 59.0592 482.049 58.6806C482.556 56.654 484.364 57.1885 485.62 56.7654C486.436 56.4982 487.274 57.7007 486.921 58.5692C486.679 59.1705 486.216 59.6827 485.819 60.3063C487.34 60.8853 487.935 59.9277 488.685 59.2373C489.545 58.4579 490.449 57.5671 491.749 57.6784C494.638 57.968 496.997 56.5427 498.848 54.7611C501.56 52.1778 504.581 51.8215 507.843 52.4896C510.291 52.9795 512.628 53.759 515.185 53.4918C515.868 53.4249 516.662 53.6922 517.323 54.004C519.749 55.0506 522.152 56.1864 524.819 57.3889C525.172 58.1907 525.657 59.2596 526.186 60.4176C527.2 59.9277 528.214 59.46 529.207 58.9478C530.419 58.3243 531.345 58.2575 531.786 59.3487C532.536 61.1302 533.836 61.2861 535.358 61.3307C535.931 61.3307 536.526 61.3307 537.121 61.3307C538.819 61.3084 540.318 61.7093 541.442 63.1568C541.663 63.4463 542.192 63.5354 542.809 63.8472C543.096 62.9786 543.338 62.2215 543.581 61.4643C544.661 61.0189 545.764 60.5735 546.844 60.1281C548.85 60.8407 550.79 61.5088 551.981 61.932C555.31 61.0634 557.955 60.3731 560.601 59.6827C560.601 59.1482 560.557 58.6138 560.535 58.1016C561.593 57.8789 562.563 57.6562 563.467 57.4558C564.106 58.3688 563.224 59.8386 564.724 60.1281C565.517 60.284 566.024 59.5046 566.135 58.0125C567.347 57.5448 568.648 56.5427 569.75 56.7209C571.801 57.0549 573.498 56.0528 575.394 55.986C576.982 55.9191 578.547 55.1397 580.156 55.8969C579.671 57.6042 580.017 58.7994 581.192 59.4823C581.898 58.4133 582.603 57.3444 583.331 56.2977C585.558 57.0326 587.939 56.8099 589.526 58.7919C589.747 59.0592 590.32 59.0592 590.761 59.1482C592.657 59.5046 594.509 59.5491 596.449 59.4378C599.138 59.2819 602.004 58.302 604.606 60.0613C604.915 60.284 605.488 60.284 605.885 60.2172C610.294 59.3041 614.615 60.039 619.002 60.5735C621.604 60.9076 623.809 61.8206 626.101 63.7135C627.556 62.3774 629.166 63.0009 630.886 63.6245C632.385 64.1589 634.038 64.3148 635.559 64.6266C636.199 63.6913 636.772 62.4219 637.94 63.1568C639.77 64.3148 641.71 63.3127 643.54 63.8026C645.524 64.3148 647.509 64.8047 649.515 65.2724C649.801 65.3392 650.132 65.3838 650.397 65.2724C652.116 64.6489 652.888 66.2077 653.792 67.0094C654.718 66.1187 655.335 65.072 656.173 64.827C657.694 64.4039 659.414 64.1144 660.935 64.4039C662.5 64.6711 663.867 64.2257 665.256 63.9585C667.417 63.5354 669.555 63.0232 671.628 62.2883C674.604 61.2416 677.029 62.1324 679.3 64.0698C679.719 64.4262 680.27 64.7602 680.777 64.8493C684.128 65.406 687.457 65.9405 690.522 67.5439C690.896 67.7443 691.403 67.878 691.778 67.7889C693.52 67.299 694.997 68.0784 696.452 68.7242C698.106 69.4591 699.561 69.2587 701.082 68.4124C704.146 66.6754 707.255 65.0052 710.363 63.3349C711.4 62.7782 712.414 62.0656 713.538 61.8206C716.537 61.1525 719.535 60.4844 722.533 59.8386C726.656 58.9478 730.867 57.8789 735.21 58.9033C736.158 59.126 737.238 58.9033 738.252 58.7697C738.627 58.7251 739.112 58.4356 739.289 58.1238C740.17 56.6095 741.581 56.3645 743.103 56.3645C745.462 56.3645 747.799 56.4982 750.158 56.5872C751.392 56.6318 752.539 56.899 753.465 57.4112V58.5024C753.906 58.5024 754.346 58.547 754.809 58.5692C754.831 58.6138 754.876 58.636 754.898 58.6583C755.294 58.6583 755.647 58.636 756 58.6138C756.353 58.6138 756.705 58.636 757.102 58.6583C757.124 58.6138 757.168 58.5915 757.191 58.5692C757.653 58.5692 758.094 58.5247 758.535 58.5024V57.4112C759.483 56.899 760.608 56.6318 761.842 56.5872C764.201 56.4982 766.56 56.3868 768.919 56.3645C770.44 56.3645 771.851 56.6095 772.733 58.1238C772.91 58.4356 773.395 58.7029 773.77 58.7697C774.784 58.9033 775.864 59.126 776.812 58.9033C781.155 57.8789 785.366 58.9478 789.489 59.8386C792.465 60.4844 795.485 61.1525 798.462 61.8206C799.586 62.0656 800.622 62.7782 801.636 63.3349C804.745 65.0052 807.854 66.6531 810.918 68.4124C812.439 69.281 813.894 69.4814 815.548 68.7242C817.003 68.0784 818.48 67.299 820.222 67.7889C820.597 67.878 821.104 67.7443 821.478 67.5439C824.521 65.9405 827.872 65.406 831.223 64.8493C831.752 64.7602 832.281 64.4262 832.7 64.0698C834.971 62.1324 837.396 61.2416 840.372 62.2883C842.445 63.0232 844.605 63.5354 846.744 63.9585C848.155 64.2257 849.5 64.6934 851.065 64.4039C852.586 64.1367 854.306 64.4039 855.827 64.827C856.665 65.072 857.282 66.1187 858.23 67.0094C859.112 66.2077 859.906 64.6489 861.625 65.2724C861.89 65.3838 862.22 65.3392 862.507 65.2724C864.491 64.8047 866.498 64.3148 868.482 63.8026C870.312 63.3127 872.252 64.3148 874.104 63.1568C875.272 62.4442 875.823 63.7135 876.485 64.6266C878.006 64.2925 879.659 64.1589 881.158 63.6245C882.878 63.0009 884.51 62.3996 885.965 63.7135C888.257 61.7983 890.44 60.8853 893.042 60.5735C897.407 60.039 901.75 59.3041 906.159 60.2172C906.556 60.3063 907.107 60.284 907.438 60.0613C910.062 58.302 912.884 59.2819 915.595 59.4378C917.535 59.5714 919.409 59.5268 921.283 59.1482C921.702 59.0592 922.297 59.0592 922.518 58.7919C924.105 56.8322 926.486 57.0326 928.713 56.2977C929.419 57.3667 930.146 58.4356 930.852 59.4823C932.027 58.7994 932.373 57.6042 931.888 55.8969C933.497 55.1397 935.062 55.8969 936.65 55.986C938.524 56.0528 940.243 57.0772 942.272 56.7209C943.396 56.5427 944.697 57.5448 945.909 58.0125C946.02 59.5046 946.505 60.2617 947.32 60.1281C948.842 59.8609 947.938 58.3688 948.577 57.4558C949.481 57.6562 950.473 57.8789 951.531 58.1016C951.531 58.636 951.487 59.1705 951.465 59.6827C954.111 60.3731 956.734 61.0634 960.063 61.932C961.276 61.5088 963.216 60.8407 965.222 60.1281C966.325 60.5735 967.405 61.0189 968.485 61.4643C968.728 62.2215 968.97 62.9786 969.257 63.8472C969.896 63.5354 970.403 63.4463 970.646 63.1568C971.748 61.7093 973.247 61.3084 974.945 61.3307C975.54 61.3307 976.135 61.3529 976.731 61.3307C978.252 61.2861 979.552 61.1302 980.302 59.3487C980.765 58.2575 981.669 58.3243 982.904 58.9478C983.896 59.4378 984.888 59.9277 985.924 60.4176C986.453 59.2373 986.938 58.1907 987.291 57.3889C989.958 56.1864 992.362 55.0506 994.787 54.004C995.448 53.6922 996.242 53.4249 996.925 53.4918C999.483 53.7813 1001.82 53.0018 1004.27 52.4896C1007.53 51.8215 1010.57 52.1778 1013.28 54.7611C1015.14 56.5427 1017.49 57.968 1020.38 57.6784C1021.68 57.5448 1022.57 58.4579 1023.43 59.2373C1024.17 59.9277 1024.77 60.8853 1026.29 60.3063C1025.89 59.6827 1025.43 59.1705 1025.19 58.5692C1024.81 57.6784 1025.67 56.4759 1026.49 56.7654C1027.75 57.1885 1029.55 56.654 1030.06 58.6806C1030.17 59.0592 1030.99 59.3041 1031.52 59.4823C1033.83 60.3063 1036.26 59.9277 1038.48 59.5046C1041.37 58.9478 1044.24 58.9924 1047.13 58.8587C1048.01 58.8142 1049.09 58.8587 1049.68 58.3911C1051.6 56.8767 1053.54 57.2108 1055.53 57.968C1058.94 59.2373 1062.12 59.0146 1065.03 56.654C1065.31 56.4091 1065.89 56.2086 1066.15 56.3423C1068.4 57.4335 1070.45 56.654 1072.52 55.8078C1073.34 55.4738 1074.22 55.3401 1075.08 55.1397C1082.73 53.3804 1090.42 53.2245 1098.21 54.1376C1102.59 54.6498 1106.94 55.5628 1111.41 55.5628C1115.62 55.5628 1119.95 58.057 1123.8 61.9097C1123.67 62.5332 1123.54 63.1791 1123.36 64.0476C1124.97 64.4262 1126.65 64.5598 1128.01 65.2501C1129.25 65.8737 1130.17 67.1431 1131.45 68.3011C1131.94 67.8334 1132.34 67.1208 1132.89 66.9649C1134.87 66.4082 1136.88 65.985 1138.93 65.651C1139.59 65.5619 1140.38 65.8291 1141.02 66.1632C1141.79 66.5195 1142.48 67.0985 1143.01 67.4771C1144.84 67.1653 1145.76 65.0497 1147.81 66.0741C1147.55 66.6977 1147.28 67.299 1147.02 67.9225C1147.28 68.9469 1148.05 68.5461 1148.74 68.6797C1149.31 68.791 1149.75 69.5259 1150.44 70.1272C1149.88 70.4612 1149.38 70.6394 1149.02 70.9734C1148.34 71.6193 1148.47 72.4878 1149.18 72.7996C1149.31 72.8664 1149.42 72.9554 1149.58 73C1150.57 73.2672 1156.26 72.7773 1157.27 72.3319C1159.54 71.3298 1161.79 70.3054 1164.1 69.281C1164.26 69.7263 1164.44 70.2608 1164.63 70.9066C1167.79 70.439 1167.32 67.6107 1168.01 65.4506C1168.8 65.1388 1169.59 64.6043 1170.43 64.493C1171.62 64.3148 1172.7 64.2703 1173.63 63.2459C1174.05 62.7782 1175.06 62.3774 1175.61 62.5332C1178.19 63.3349 1179.47 61.8874 1180.22 60.1504C1182.69 59.5268 1184.81 58.9478 1186.94 58.4356C1188.38 58.1016 1189.81 57.8121 1190.96 59.1037C1193.69 58.7251 1196.4 58.1907 1199.18 58.881C1200.59 59.2151 1201.91 59.5936 1203.22 60.4176C1204.49 61.2193 1206.24 61.442 1207.78 61.5311C1209.28 61.5979 1210.71 61.3529 1211.48 63.0677C1211.53 63.1791 1211.73 63.2459 1211.86 63.2681C1212.65 63.3349 1213.86 62.8005 1213.91 64.1367C1213.95 64.9161 1213.29 65.6955 1212.85 66.6977C1215.47 67.2321 1216.84 65.2501 1218.54 64.0698C1218.3 64.0698 1218.07 64.0698 1217.83 64.0698C1218.05 64.0698 1218.3 64.0253 1218.52 64.003C1220.39 64.6934 1221.95 63.4686 1223.63 63.0677C1224.09 62.9564 1224.64 62.266 1224.73 61.7761C1225.06 59.8386 1226.36 59.6159 1227.97 59.4378C1230.16 59.1928 1232.32 58.7029 1234.46 58.3243C1234.87 57.1885 1234.92 55.7633 1236.46 55.6519C1238.67 55.5183 1239.79 54.004 1240.78 52.1778C1242.77 52.0888 1244.68 51.8438 1246.58 51.9774C1249.8 52.2001 1253.04 52.8682 1255.69 50.1513C1255.91 49.9286 1256.52 50.0845 1256.94 50.0177C1257.96 49.9063 1258.95 49.7727 1260.1 49.6168C1260.49 50.0177 1260.98 50.5299 1261.48 51.0198C1262.85 50.2033 1264.45 50.5967 1266.29 52.2001C1266.8 51.7993 1267.37 51.3984 1267.9 50.953C1268.47 50.4853 1269.02 49.9954 1269.51 49.5723C1272.73 49.9063 1274.38 52.9573 1277.53 53.759C1277.84 53.514 1278.39 53.2468 1278.7 52.8237C1279.25 52.0219 1279.85 51.3539 1280.86 51.777C1281.9 52.2001 1282.52 53.0464 1282.52 54.2044C1282.52 55.2288 1282.36 56.2532 1282.3 57.2108C1283.35 57.9902 1284.15 58.0125 1284.35 56.7209C1284.48 55.7187 1284.32 54.6943 1284.26 53.4695C1285.16 53.4918 1285.85 53.5363 1286.51 53.5586C1286.6 53.8926 1286.75 54.1598 1286.75 54.4048C1286.75 54.8502 1286.55 55.2956 1286.6 55.7187C1286.84 57.5226 1287.28 57.8566 1289.22 57.968C1290.39 58.0348 1291.71 57.9011 1292.68 58.3911C1294.75 59.4155 1296.89 59.4155 1299.07 59.4155C1299.67 59.4155 1300.46 59.8609 1300.79 59.6159C1303.66 57.5003 1306.48 59.7718 1309.44 59.3709C1310.03 60.3063 1310.49 61.2193 1311.13 61.9988C1312.37 63.5354 1314.22 63.9808 1315.9 62.9341C1317.75 61.7983 1319.47 60.3953 1321.47 58.9701C1321.63 59.2151 1321.94 59.6382 1322.22 60.1058C1323.02 60.5067 1323.1 59.5936 1323.57 59.3709C1325.38 58.5247 1327.82 59.705 1329.26 57.6116C1331.26 57.1662 1333.25 56.5427 1335.3 56.32C1337.02 56.1196 1338.45 54.6498 1340.35 55.2956C1340.59 55.3624 1341.18 54.8947 1341.34 54.5384C1342.02 52.8682 1343.5 52.4673 1344.93 52.356C1348.46 52.0888 1351.99 51.8215 1355.2 53.9594C1356.24 54.6498 1357.67 54.8279 1358.95 55.0729C1360.91 55.4292 1362.59 56.2977 1364.05 57.6339C1364.77 58.302 1364.42 58.9256 1363.54 59.6159C1366.29 60.6626 1368.79 60.0613 1371.34 59.7495C1374.16 59.4155 1376.06 57.6562 1377.54 55.5851C1379.01 56.565 1378.15 57.5671 1378.4 58.3688C1378.64 58.5024 1378.88 58.7474 1379.12 58.7251C1379.98 58.6583 1380.87 58.302 1381.68 58.4356C1382.67 58.5692 1383.82 58.8365 1384.48 59.46C1384.97 59.9277 1384.77 61.0857 1384.9 61.932C1384.95 62.1992 1385.17 62.4442 1385.34 62.8005C1388.63 61.7093 1391.93 60.618 1395.44 59.4378C1395.79 59.6382 1396.39 59.9945 1397 60.3508C1397.2 59.3709 1397.4 58.4133 1397.62 57.2776C1398.68 57.3889 1399.54 57.478 1400.4 57.5671C1402.14 57.7675 1403.93 58.3243 1405.63 58.0793C1407.34 57.8343 1408.82 58.0793 1410.19 58.9033C1410.72 58.6138 1411.16 58.4579 1411.47 58.1684C1413.67 56.0528 1416.1 55.0952 1419.12 56.32C1419.65 56.5204 1420.37 56.7209 1420.84 56.5427C1423.99 55.2065 1427.32 56.5872 1430.49 55.7633C1431.31 55.5628 1432.26 55.7855 1433.32 55.8301C1433.4 56.8322 1433.43 57.8121 1433.6 58.7697C1433.84 60.1281 1434.55 60.8853 1435.04 60.4844C1435.81 59.7941 1435.17 59.1482 1434.97 58.5024C1434.75 57.8343 1434.99 57.3221 1435.63 57.0994C1436.4 56.8099 1437.04 56.9658 1437.39 57.7675C1438.01 56.9436 1438.63 56.1196 1439.33 55.162C1439.93 55.162 1440.52 55.0952 1441.05 55.2511C1443.63 56.0082 1446.15 55.3624 1448.64 54.8279C1450.67 54.3825 1452.08 54.7166 1453.05 56.5872C1453.58 57.6116 1454.3 58.2129 1455.65 57.7675C1455.63 57.2331 1455.58 56.6763 1455.56 56.1196C1455.76 55.9414 1455.96 55.6519 1456.18 55.6519C1456.91 55.6074 1457.72 55.9191 1458.32 55.6519C1462.55 53.759 1466.96 53.3136 1471.54 53.4027C1478.75 53.5363 1485.96 53.4472 1493.17 53.4027C1497.1 53.4027 1497.1 53.3359 1500.43 56.1864C1501 55.6074 1501.57 55.0284 1502.14 54.4493C1501.81 53.9149 1501.53 53.4695 1501.09 52.69C1502.32 52.4673 1503.29 52.2001 1504.26 52.1556C1505.41 52.0888 1506.58 52.2892 1507.74 52.2446C1508.67 52.2446 1509.49 52.3337 1510.13 53.1132C1510.74 53.8481 1511.45 54.3603 1512.22 54.8057V13.5622C1510.57 13.6958 1508.91 13.7849 1507.26 13.6513C1506.77 13.629 1506.29 13.1391 1505.69 12.805C1506.51 11.0903 1508.01 10.8899 1509.13 11.1571H1508.91ZM1510.85 6.41365C1510.99 6.3023 1511.49 6.43592 1511.54 6.59181C1511.74 7.08174 1511.82 7.61621 1511.93 8.12841C1511.69 8.17295 1511.47 8.21749 1511.23 8.26203C1511.01 7.88345 1510.74 7.52713 1510.63 7.12628C1510.57 6.90358 1510.68 6.525 1510.83 6.39138L1510.85 6.41365ZM1482.06 9.44232C1481.88 9.28644 1481.71 9.15282 1481.58 8.97466C1481.55 8.93012 1481.71 8.75196 1481.77 8.64062C1481.88 8.66289 1482.13 8.70743 1482.13 8.75196C1482.13 8.97466 1482.08 9.19736 1482.04 9.44232H1482.06ZM1190.27 5.87918C1190.87 5.58967 1191.53 5.41151 1192.46 5.07747C1192.3 6.32457 1191.66 6.72542 1191.02 6.94812C1190.74 7.0372 1190.32 6.74769 1189.97 6.61408C1190.08 6.36911 1190.12 5.96825 1190.3 5.87918H1190.27ZM321.021 6.94812C320.381 6.72542 319.742 6.32457 319.588 5.07747C320.514 5.41151 321.153 5.58967 321.77 5.87918C321.947 5.96825 321.991 6.34684 322.101 6.61408C321.748 6.74769 321.329 7.05947 321.043 6.94812H321.021ZM30.248 8.64062C30.248 8.64062 30.4684 8.93012 30.4464 8.97466C30.3141 9.15282 30.1377 9.28644 29.9614 9.44232C29.9393 9.19736 29.8732 8.97466 29.8732 8.75196C29.8732 8.70743 30.1157 8.66289 30.2259 8.64062H30.248ZM0.771653 8.26203C0.529141 8.21749 0.308675 8.17295 0.0661621 8.12841C0.198442 7.59394 0.264581 7.05947 0.463001 6.59181C0.529141 6.43592 1.03621 6.3023 1.14645 6.41365C1.30077 6.525 1.411 6.92585 1.36691 7.14855C1.25668 7.5494 0.992119 7.90572 0.771653 8.2843V8.26203ZM12.5004 12.8941C13.691 12.3003 15.124 12.4042 16.7995 13.2059C15.1901 14.0521 13.9114 13.629 12.5004 12.8941ZM21.738 13.4063C21.6277 12.3151 22.3112 12.2483 22.8403 12.3819C23.7442 12.6492 24.9127 12.2706 25.7505 13.6736C24.2292 13.5845 22.9726 13.4954 21.738 13.4063ZM61.7966 21.7352C61.7966 21.6016 61.7966 21.468 61.7966 21.3343C63.6265 21.2675 65.4564 21.2007 67.3083 21.1339C67.3524 21.2675 67.3744 21.4011 67.4185 21.5348C65.5446 21.6016 63.6926 21.6684 61.8187 21.7352H61.7966ZM137.857 57.2108L138.166 57.0549V57.3444L137.857 57.2108ZM140.878 58.1461V57.8789L141.164 57.9902L140.878 58.1238V58.1461ZM187.661 14.8984C186.999 15.3883 186.095 16.19 185.5 16.0341C182.612 15.3215 179.702 15.6778 176.814 15.4551C175.204 15.3438 174.389 14.208 174.874 12.716C175.028 12.2483 175.579 11.8474 176.064 11.6248C176.395 11.4689 176.902 11.7138 177.343 11.7361C179.371 11.8474 181.399 11.9588 183.428 12.0924C184.574 12.1592 185.765 12.226 186.889 12.4265C187.44 12.5378 187.947 12.9164 188.3 13.0946C187.969 14.0967 187.969 14.6757 187.683 14.8761L187.661 14.8984ZM189.799 15.2324C189.887 14.4307 190.042 13.6068 190.064 12.7828C190.086 11.9365 190.02 11.0903 189.976 9.77637C190.725 10.9567 191.21 11.8029 191.783 12.6046C192.357 13.4063 193.018 14.1412 193.657 14.9207C192.57 15.5442 191.284 15.6481 189.799 15.2324ZM195.906 15.2992C195.906 15.1656 195.906 15.032 195.862 14.8984C195.994 14.8316 196.127 14.7202 196.237 14.7425C196.325 14.7648 196.413 14.9429 196.479 15.032C196.281 15.1211 196.082 15.2102 195.884 15.2992H195.906ZM198.86 59.5714L198.552 59.3932L198.904 59.2819L198.86 59.5714ZM208.34 55.4292L208.671 55.2733V55.5628L208.34 55.4292ZM223.31 17.3258C223.442 16.4795 223.53 15.8337 223.685 14.8316C225.118 15.5219 226.33 15.9005 227.675 17.5262C225.934 17.4371 224.787 17.3926 223.31 17.3035V17.3258ZM258.188 45.6528C257.681 45.6528 257.174 45.586 256.689 45.5637C256.689 45.3856 256.667 45.2074 256.667 45.0515C257.152 44.9625 257.637 44.8288 258.122 44.8066C258.232 44.8066 258.386 45.1852 258.474 45.4079C258.474 45.4524 258.298 45.6751 258.188 45.6528ZM271.923 9.0192C271.592 8.75196 271.239 8.55154 270.975 8.23976C270.909 8.17295 271.217 7.79437 271.416 7.41578C271.724 7.72756 272.077 7.95026 272.253 8.2843C272.32 8.41792 272.055 8.75196 271.945 9.0192H271.923ZM285.614 8.52927C285.614 8.52927 285.481 8.35111 285.437 8.23976C285.548 8.23976 285.68 8.12841 285.768 8.17295C285.856 8.21749 285.9 8.37338 285.966 8.46246C285.856 8.507 285.724 8.57381 285.614 8.55154V8.52927ZM298.335 10.9789C298.268 10.8453 298.18 10.6894 298.092 10.5335C298.202 10.5335 298.335 10.4445 298.423 10.489C298.511 10.5113 298.533 10.6672 298.599 10.7562C298.511 10.823 298.423 10.8899 298.335 10.9567V10.9789ZM333.543 14.5198L333.83 14.698L333.455 14.8093L333.543 14.5198ZM332.176 55.4069C330.765 55.162 329.354 54.8279 327.965 54.5162C328.009 54.2935 328.075 54.0485 328.12 53.8258C329.575 53.7813 331.008 53.6476 332.441 53.7144C332.838 53.7144 333.499 54.4271 333.499 54.8279C333.543 55.7633 332.661 55.4737 332.176 55.4069ZM333.741 60.5735L333.984 60.4399V60.6849L333.741 60.5735ZM340.51 13.6736C340.51 13.6736 340.488 13.4731 340.488 13.3618C340.642 13.4509 340.774 13.5399 341.039 13.6513C340.774 13.6513 340.642 13.7181 340.532 13.6513L340.51 13.6736ZM345.603 56.565C345.382 56.4759 345.14 56.3868 344.919 56.2977C345.007 56.075 345.095 55.8301 345.184 55.6296C345.404 55.7187 345.735 55.741 345.823 55.9191C345.911 56.075 345.691 56.3423 345.603 56.5872V56.565ZM355.038 69.1028C354.818 68.9692 354.575 68.8578 354.355 68.7465C354.553 68.5906 354.73 68.3456 354.928 68.3234C355.149 68.3011 355.369 68.5238 355.59 68.6351C355.413 68.791 355.215 68.9469 355.038 69.1251V69.1028ZM364.364 10.5113C364.276 10.2886 364.144 10.0436 364.188 9.82091C364.188 9.70956 364.541 9.62048 364.717 9.55367C364.761 9.68729 364.871 9.84318 364.827 9.93226C364.717 10.155 364.519 10.3331 364.364 10.5335V10.5113ZM371.64 11.9811C371.155 12.4265 370.625 12.4933 370.184 11.9365C370.052 11.7584 370.118 11.4243 370.096 11.1794C370.493 11.1571 370.89 11.0457 371.243 11.1125C371.463 11.1571 371.617 11.4466 371.816 11.647C371.75 11.7361 371.706 11.892 371.617 11.9811H371.64ZM372.543 14.453C372.543 14.453 372.389 14.2526 372.323 14.1412C372.566 14.1412 372.83 14.0967 373.073 14.0967C373.139 14.0967 373.205 14.2971 373.271 14.4307C373.028 14.4307 372.786 14.4753 372.543 14.4307V14.453ZM373.624 63.3795C373.624 63.1345 373.58 62.9118 373.58 62.6891C373.58 62.6446 373.8 62.6446 373.91 62.6C373.932 62.8227 373.976 63.0454 373.954 63.2681C373.954 63.3127 373.734 63.3349 373.624 63.3795ZM380.59 65.2947C380.59 65.2947 380.458 65.1165 380.414 65.0274C380.502 64.9606 380.613 64.8938 380.723 64.827C380.811 64.9829 380.899 65.1388 380.987 65.2947C380.855 65.2947 380.723 65.2947 380.613 65.2947H380.59ZM381.053 13.8295C380.546 13.629 379.995 13.5399 379.598 13.2282C379.312 13.0055 379.224 12.5378 378.959 11.9588C379.598 11.6248 380.172 11.313 380.833 10.9789C381.12 11.5579 381.45 11.9365 381.45 12.2928C381.45 12.805 381.208 13.3172 381.076 13.8072L381.053 13.8295ZM403.056 43.3813C402.902 43.3368 402.835 42.9582 402.725 42.7355C403.078 42.691 403.453 42.5796 403.783 42.6464C403.916 42.6464 404.004 43.0473 404.18 43.4259C403.739 43.4259 403.365 43.4927 403.056 43.359V43.3813ZM410.905 49.6614V49.3941L411.213 49.55L410.905 49.6614ZM477.596 56.1864C477.596 56.0528 477.596 55.9414 477.596 55.8078C478.411 55.741 479.227 55.6742 480.043 55.6074C480.043 55.8078 480.043 56.0305 480.065 56.2309C479.249 56.2309 478.411 56.1864 477.596 56.1864ZM575.879 13.629C574.887 12.0033 574.226 10.6449 573.983 8.81877C576.166 8.72969 576.739 10.1104 577.599 11.4466C577.07 12.137 576.563 12.7605 575.879 13.629ZM581.744 11.9811C582.714 12.0701 583.375 12.1147 584.279 12.2038C583.287 13.1614 582.625 12.9832 581.744 11.9811ZM591.378 56.654C591.202 56.5204 591.025 56.4091 590.849 56.2532C590.849 56.2532 590.981 56.0528 591.047 55.9414C591.224 56.075 591.4 56.2087 591.576 56.32C591.488 56.4313 591.422 56.5204 591.356 56.6318L591.378 56.654ZM594.024 12.0701C593.649 11.9811 593.252 11.8252 592.921 11.6025C592.833 11.5357 592.943 11.1571 592.965 10.9344C593.45 11.0457 593.935 11.1571 594.531 11.2907C594.266 11.7138 594.09 12.0701 594.024 12.0701ZM599.116 52.8905L599.293 52.6678L599.403 52.935L599.116 52.8905ZM604.033 11.647C604.033 11.647 603.812 11.647 603.702 11.6916C603.724 11.5134 603.768 11.3352 603.79 11.1794C603.878 11.2239 604.033 11.2684 604.077 11.3575C604.121 11.4243 604.055 11.5579 604.033 11.6693V11.647ZM734.262 18.417C734.218 18.172 734.174 17.9271 734.174 17.6821C734.174 17.6376 734.416 17.6153 734.549 17.5708C734.571 17.8157 734.637 18.0607 734.637 18.3057C734.637 18.3279 734.394 18.3502 734.262 18.3947V18.417ZM734.923 15.5442C734.923 15.5442 734.769 15.3438 734.681 15.2547C734.791 15.2102 734.901 15.1434 735.012 15.0988C735.122 15.1656 735.254 15.2102 735.386 15.2992C735.232 15.3883 735.1 15.5219 734.923 15.5665V15.5442ZM776.944 15.5442C776.768 15.4997 776.636 15.3661 776.481 15.277C776.614 15.2102 776.724 15.1656 776.834 15.0766C776.966 15.1211 777.076 15.1879 777.187 15.2324C777.121 15.3438 776.988 15.5442 776.944 15.5219V15.5442ZM777.606 18.417C777.473 18.3725 777.231 18.3502 777.231 18.3279C777.231 18.083 777.275 17.838 777.319 17.593C777.451 17.6376 777.694 17.6598 777.694 17.7044C777.694 17.9493 777.65 18.1943 777.606 18.4393V18.417ZM907.835 11.647C907.835 11.647 907.747 11.4021 907.791 11.3352C907.835 11.2462 907.967 11.2239 908.077 11.1571C908.099 11.3352 908.144 11.4911 908.166 11.6693C908.055 11.6693 907.945 11.647 907.835 11.6248V11.647ZM912.465 52.935L912.575 52.6678L912.751 52.8905L912.465 52.935ZM918.968 11.6025C918.638 11.8252 918.263 11.9811 917.866 12.0701C917.8 12.0701 917.624 11.7138 917.359 11.2907C917.932 11.1571 918.417 11.0457 918.902 10.9344C918.924 11.1571 919.035 11.5357 918.946 11.6025H918.968ZM920.534 56.654C920.468 56.5427 920.379 56.4536 920.313 56.3423C920.49 56.2086 920.666 56.0973 920.842 55.9637C920.909 56.075 921.063 56.2532 921.041 56.2755C920.909 56.4313 920.71 56.5427 920.534 56.6763V56.654ZM927.633 12.2038C928.537 12.1147 929.198 12.0701 930.168 11.9811C929.286 12.9832 928.647 13.1614 927.633 12.2038ZM936.033 13.629C935.371 12.7828 934.842 12.137 934.313 11.4466C935.151 10.0881 935.724 8.70743 937.928 8.81877C937.686 10.6449 937.025 12.0033 936.033 13.629ZM1034.34 56.1864C1033.5 56.1864 1032.68 56.2087 1031.87 56.2309C1031.87 56.0305 1031.87 55.8078 1031.87 55.6074C1032.68 55.6742 1033.5 55.741 1034.32 55.8078C1034.32 55.9414 1034.32 56.0528 1034.32 56.1864H1034.34ZM1100.72 49.5277L1101.01 49.3719V49.6391L1100.72 49.5277ZM1108.88 43.359C1108.55 43.4704 1108.17 43.4036 1107.75 43.4259C1107.93 43.0473 1108.02 42.6687 1108.15 42.6464C1108.5 42.5796 1108.86 42.691 1109.21 42.7355C1109.1 42.9582 1109.03 43.3145 1108.88 43.3813V43.359ZM1131.34 65.2724C1131.21 65.2724 1131.08 65.2724 1130.97 65.2724C1131.06 65.1165 1131.14 64.9606 1131.23 64.8047C1131.34 64.8716 1131.43 64.9384 1131.54 65.0052C1131.48 65.0943 1131.41 65.1833 1131.37 65.2724H1131.34ZM1132.34 13.2059C1131.92 13.5177 1131.37 13.6068 1130.88 13.8072C1130.73 13.295 1130.48 12.7828 1130.51 12.2928C1130.51 11.9365 1130.84 11.5579 1131.12 10.9789C1131.78 11.313 1132.36 11.6248 1133 11.9588C1132.73 12.5155 1132.64 13.0055 1132.36 13.2282L1132.34 13.2059ZM1138.31 63.3349C1138.2 63.2904 1137.98 63.2681 1137.98 63.2236C1137.98 63.0009 1137.98 62.7782 1138.02 62.5555C1138.16 62.5778 1138.38 62.6 1138.38 62.6446C1138.38 62.8673 1138.38 63.09 1138.33 63.3349H1138.31ZM1139.39 14.4085C1139.17 14.453 1138.91 14.4085 1138.66 14.4085C1138.73 14.2748 1138.8 14.0967 1138.86 14.0744C1139.1 14.0744 1139.37 14.0744 1139.61 14.119C1139.54 14.208 1139.48 14.4085 1139.39 14.4307V14.4085ZM1141.75 11.892C1141.31 12.4487 1140.8 12.3819 1140.29 11.9365C1140.18 11.8475 1140.14 11.6916 1140.1 11.6025C1140.29 11.4021 1140.45 11.1125 1140.67 11.068C1141.04 11.0012 1141.44 11.0903 1141.84 11.1348C1141.84 11.4021 1141.88 11.7138 1141.75 11.892ZM1147.57 10.4667C1147.42 10.2886 1147.24 10.0881 1147.11 9.86545C1147.06 9.77637 1147.17 9.62048 1147.22 9.48686C1147.39 9.57594 1147.72 9.64275 1147.75 9.7541C1147.77 9.9768 1147.64 10.2218 1147.55 10.4445L1147.57 10.4667ZM1156.9 69.0583C1156.72 68.9024 1156.52 68.7242 1156.34 68.5683C1156.56 68.457 1156.79 68.2343 1157.01 68.2565C1157.2 68.2565 1157.4 68.5238 1157.58 68.6797C1157.36 68.791 1157.12 68.9024 1156.9 69.036V69.0583ZM1166.33 56.5204C1166.24 56.2977 1166.04 56.0082 1166.11 55.8523C1166.2 55.6742 1166.53 55.6519 1166.75 55.5628C1166.84 55.7855 1166.93 56.0082 1167.01 56.2309C1166.79 56.32 1166.55 56.4091 1166.33 56.4982V56.5204ZM1171.42 13.629C1171.31 13.6736 1171.18 13.629 1170.92 13.629C1171.16 13.4954 1171.31 13.4063 1171.45 13.3395C1171.45 13.4509 1171.45 13.629 1171.42 13.6513V13.629ZM1178.39 14.4753L1178.48 14.7648L1178.13 14.6534L1178.39 14.4753ZM1177.95 60.6403V60.3954L1178.19 60.529L1177.95 60.6403ZM1179.76 55.3624C1179.27 55.4515 1178.39 55.7187 1178.43 54.7834C1178.43 54.3825 1179.1 53.6699 1179.49 53.6699C1180.93 53.5808 1182.38 53.7367 1183.81 53.7813C1183.86 54.004 1183.92 54.2489 1183.97 54.4716C1182.56 54.7834 1181.17 55.1397 1179.74 55.3624H1179.76ZM1213.62 10.9344C1213.62 10.9344 1213.44 10.8008 1213.36 10.734C1213.4 10.6449 1213.44 10.489 1213.53 10.4667C1213.62 10.4222 1213.75 10.4667 1213.86 10.5113C1213.8 10.6672 1213.71 10.8008 1213.62 10.9567V10.9344ZM1226.34 8.48473C1226.34 8.48473 1226.12 8.44019 1226.01 8.39565C1226.08 8.30657 1226.12 8.15068 1226.21 8.10614C1226.28 8.0616 1226.41 8.15068 1226.52 8.17295C1226.45 8.2843 1226.43 8.44019 1226.34 8.46246V8.48473ZM1240.03 8.97466C1239.92 8.70743 1239.64 8.37338 1239.72 8.23976C1239.9 7.90572 1240.23 7.68302 1240.54 7.37124C1240.74 7.74983 1241.05 8.12841 1240.98 8.19522C1240.72 8.507 1240.36 8.70743 1240.03 8.97466ZM1255.27 45.5192C1254.76 45.5415 1254.25 45.6083 1253.77 45.6083C1253.68 45.6083 1253.48 45.4079 1253.48 45.3633C1253.57 45.1406 1253.72 44.7398 1253.83 44.762C1254.32 44.762 1254.8 44.9179 1255.29 45.007C1255.29 45.1852 1255.29 45.3633 1255.27 45.5192ZM1284.28 17.5039C1285.63 15.8783 1286.84 15.4774 1288.27 14.8093C1288.4 15.8115 1288.51 16.4573 1288.62 17.3035C1287.17 17.3703 1286.02 17.4371 1284.28 17.5262V17.5039ZM1303.26 55.5183V55.2288L1303.59 55.3847L1303.26 55.5183ZM1313.05 59.5491L1313.01 59.2596L1313.36 59.3709L1313.05 59.5491ZM1316.01 15.277C1315.81 15.1879 1315.61 15.0988 1315.41 15.0097C1315.5 14.9207 1315.56 14.7425 1315.65 14.7202C1315.76 14.7202 1315.9 14.8093 1316.03 14.8761C1316.03 15.0097 1316.03 15.1434 1316.01 15.277ZM1318.25 14.8984C1318.89 14.119 1319.56 13.3618 1320.13 12.5823C1320.7 11.7806 1321.19 10.9344 1321.94 9.7541C1321.89 11.068 1321.8 11.9143 1321.83 12.7605C1321.85 13.5845 1322 14.4085 1322.09 15.2102C1320.61 15.6259 1319.32 15.5219 1318.23 14.8984H1318.25ZM1335.08 15.4329C1332.21 15.6333 1329.3 15.2993 1326.39 16.0119C1325.77 16.1678 1324.89 15.3661 1324.21 14.8761C1323.94 14.6757 1323.92 14.119 1323.59 13.0946C1323.94 12.9164 1324.43 12.5155 1325 12.4265C1326.12 12.226 1327.29 12.1592 1328.46 12.0924C1330.49 11.9588 1332.52 11.8474 1334.55 11.7361C1334.97 11.7138 1335.47 11.4689 1335.83 11.6248C1336.29 11.8474 1336.86 12.2483 1337.02 12.716C1337.5 14.1858 1336.69 15.3438 1335.08 15.4551V15.4329ZM1371.01 58.1016L1370.75 57.968L1371.03 57.8566V58.1238L1371.01 58.1016ZM1373.72 57.2999V57.0104L1374.05 57.1662L1373.72 57.2999ZM1450.12 21.6906C1448.24 21.6238 1446.39 21.5348 1444.52 21.4902C1444.56 21.3566 1444.58 21.223 1444.63 21.0894C1446.46 21.1562 1448.29 21.223 1450.12 21.2898C1450.12 21.4234 1450.12 21.557 1450.12 21.6906ZM1486.16 13.629C1487 12.226 1488.17 12.6046 1489.07 12.3374C1489.6 12.1815 1490.28 12.2483 1490.17 13.3618C1488.92 13.4509 1487.68 13.5399 1486.16 13.629ZM1495.11 13.1391C1496.8 12.3374 1498.24 12.2335 1499.41 12.8273C1498 13.5399 1496.7 13.9631 1495.11 13.1391Z" fill="#13565E"/>
<path fill-rule="evenodd" clip-rule="evenodd" d="M1072.3 10.3777C1072.3 10.3777 1072.39 10.4 1072.41 10.4222C1072.41 10.3777 1072.41 10.3332 1072.41 10.2664L1072.3 10.3777Z" fill="#13565E"/>
</g>
<defs>
<clipPath id="clip0_2323_80">
<rect width="1512" height="73" fill="white"/>
</clipPath>
</defs>
</svg>
