<svg xmlns="http://www.w3.org/2000/svg" width="195" height="74" viewBox="0 0 195 74" fill="none">
<path d="M40.1927 71.689C40.1927 72.4259 39.9706 72.9954 39.4948 73.3973C39.0507 73.7993 38.4163 74.0003 37.5916 74.0003C36.7986 74.0003 36.1324 73.8663 35.6249 73.5648V72.2919C35.9421 72.4594 36.291 72.5934 36.6717 72.6939C37.0206 72.7944 37.3695 72.8614 37.6867 72.8614C38.1626 72.8614 38.4798 72.7609 38.7018 72.5599C38.9239 72.3589 39.019 72.091 39.019 71.756C39.019 71.4545 38.9239 71.1865 38.7335 70.9855C38.5432 70.7846 38.1308 70.5166 37.4964 70.2486C36.862 69.9471 36.3862 69.6122 36.1324 69.2102C35.8786 68.8082 35.72 68.3728 35.72 67.8033C35.72 67.1334 35.9421 66.5974 36.3545 66.1954C36.7668 65.7935 37.3378 65.626 38.0357 65.626C38.7018 65.626 39.3997 65.7935 40.0658 66.1284L39.6852 67.2003C39.0507 66.8989 38.4798 66.7314 38.0039 66.7314C37.6233 66.7314 37.3378 66.8319 37.1475 66.9994C36.9572 67.2003 36.862 67.4348 36.862 67.7363C36.862 67.9373 36.8937 68.1383 36.9889 68.2723C37.0523 68.4397 37.1792 68.5737 37.3695 68.7077C37.5599 68.8417 37.8771 69.0092 38.3212 69.2437C38.8287 69.4782 39.2093 69.7126 39.4631 69.9471C39.7169 70.1481 39.8755 70.4161 40.0024 70.6841C40.1292 71.019 40.1927 71.3205 40.1927 71.689Z" fill="#4B847D"/>
<path d="M47.5131 66.9838C46.8234 66.9838 46.2651 67.2437 45.8711 67.7634C45.477 68.2831 45.2799 69.0302 45.2799 69.9397C45.2799 70.9141 45.477 71.6288 45.8382 72.1485C46.2323 72.6357 46.7577 72.8956 47.4802 72.8956C47.8086 72.8956 48.1042 72.8631 48.3998 72.7981C48.6953 72.7332 48.9909 72.6357 49.3193 72.5383V73.6427C48.7282 73.87 48.1042 74 47.3489 74C46.2651 74 45.4441 73.6427 44.853 72.9605C44.2619 72.2459 43.9991 71.2714 43.9991 69.9397C43.9991 69.1276 44.1305 68.413 44.4261 67.7959C44.7216 67.1787 45.1157 66.6915 45.6412 66.3666C46.1666 66.0418 46.7906 65.8794 47.5131 65.8794C48.2684 65.8794 48.9581 66.0418 49.582 66.3991L49.1551 67.471C48.8924 67.3411 48.6297 67.2437 48.3669 67.1462C48.1042 67.0163 47.8415 66.9838 47.5131 66.9838Z" fill="#4B847D"/>
<path d="M59.2253 73.7462H58.0052V70.1851H54.6088V73.7462H53.3887V65.8794H54.6088V69.0844H58.0052V65.8794H59.2253V73.7462Z" fill="#4B847D"/>
<path d="M63.7931 73.7462V65.8794H64.8082V73.7462H63.7931Z" fill="#4B847D"/>
<path d="M69.376 73.7462V65.8794H70.5852V72.6455H73.69V73.7462H69.376Z" fill="#4B847D"/>
<path d="M83.587 69.7319C83.587 71.0268 83.2542 72.0304 82.5553 72.7102C81.8564 73.3901 80.8912 73.7462 79.5933 73.7462H77.4966V65.8794H79.793C80.9911 65.8794 81.8897 66.2031 82.5553 66.883C83.2542 67.5628 83.587 68.534 83.587 69.7319ZM82.289 69.7966C82.289 67.9189 81.457 66.9801 79.793 66.9801H78.728V72.7102H79.5933C81.3905 72.6779 82.289 71.7067 82.289 69.7966Z" fill="#4B847D"/>
<path d="M91.9613 73.7462H87.6472V65.8794H91.9613V66.9801H88.9041V69.1168H91.7574V70.1851H88.9041V72.6455H91.9613V73.7462Z" fill="#4B847D"/>
<path d="M97.251 70.7384V73.9667H96.0215V65.8794H98.1151C99.0788 65.8794 99.7766 66.0791 100.242 66.4784C100.707 66.8778 100.94 67.4769 100.94 68.2423C100.94 69.2408 100.475 69.973 99.5108 70.4056L101.604 74H100.209L98.4141 70.7717H97.251V70.7384ZM97.251 69.6401H98.0818C98.6468 69.6401 99.0788 69.5403 99.3114 69.3073C99.5773 69.0744 99.7102 68.7416 99.7102 68.2756C99.7102 67.8097 99.5773 67.4769 99.3114 67.2772C99.0455 67.0775 98.6135 66.9777 98.0818 66.9777H97.2843V69.6401H97.251Z" fill="#4B847D"/>
<path d="M111.946 73.7462H110.655L109.429 69.052C109.365 68.8578 109.3 68.5664 109.236 68.1779C109.171 67.7894 109.107 67.5305 109.107 67.3686C109.074 67.5952 109.01 67.8866 108.945 68.275C108.881 68.6312 108.816 68.9225 108.752 69.0844L107.558 73.7462H106.267L105.332 69.7966L104.396 65.8794H105.59L106.622 70.4764C106.784 71.221 106.913 71.8685 106.977 72.4189C107.009 72.1275 107.074 71.7714 107.138 71.3829C107.203 70.9944 107.268 70.7031 107.332 70.4764L108.494 65.8794H109.655L110.849 70.5088C110.978 70.9297 111.075 71.5772 111.204 72.4189C111.269 71.9009 111.365 71.2534 111.559 70.4441L112.591 65.8794H113.785L111.946 73.7462Z" fill="#4B847D"/>
<path d="M121.652 73.7462H117.592V65.8794H121.652V66.9801H118.775V69.1168H121.46V70.1851H118.775V72.6455H121.652V73.7462Z" fill="#4B847D"/>
<path d="M127.14 70.7384V73.9667H125.966V65.8794H127.965C128.885 65.8794 129.551 66.0791 129.995 66.4784C130.439 66.8778 130.661 67.4769 130.661 68.2423C130.661 69.2408 130.185 69.973 129.297 70.4056L131.295 74H129.963L128.25 70.7717H127.14V70.7384ZM127.14 69.6401H127.933C128.472 69.6401 128.853 69.5403 129.107 69.3073C129.36 69.0744 129.456 68.7416 129.456 68.2756C129.456 67.8097 129.329 67.4769 129.075 67.2772C128.821 67.0775 128.409 66.9777 127.901 66.9777H127.14V69.6401Z" fill="#4B847D"/>
<path d="M140.685 73.7462H139.313L137.028 70.1851L136.31 70.8002V73.7462H135.102V65.8794H136.31V69.6347C136.636 69.2139 136.963 68.793 137.289 68.4045L139.281 65.8794H140.652C139.379 67.4981 138.465 68.6311 137.91 69.3434L140.685 73.7462Z" fill="#4B847D"/>
<path d="M148.298 73.7462H144.237V65.8794H148.298V66.9801H145.42V69.1168H148.106V70.1851H145.42V72.6455H148.298V73.7462Z" fill="#4B847D"/>
<path d="M158.702 73.9665H157.237L153.654 67.4835H153.589L153.621 67.8511C153.654 68.5528 153.686 69.1543 153.686 69.7559V74H152.612V65.8794H154.045L157.627 72.3291H157.66C157.66 72.2622 157.627 71.928 157.627 71.3934C157.595 70.8587 157.595 70.4242 157.595 70.1235V65.8794H158.702V73.9665Z" fill="#4B847D"/>
<path d="M12.3037 14.897C11.923 11.5219 13.8263 9.54255 16.9222 9.21265C20.0182 8.88275 21.287 10.5576 21.4901 12.537C21.6931 14.3895 20.9064 16.5973 19.4853 17.6631C20.2974 18.4244 21.1855 18.6782 22.2006 18.5513C25.0174 18.2468 26.54 15.633 26.1848 12.3594C25.4996 6.16744 19.0285 6.3197 16.3893 6.59884C9.13159 7.38552 3.85322 12.2579 4.48764 18.0945C5.4012 26.3673 17.3029 28.5497 18.3687 38.1675C18.8763 42.8876 16.4401 45.9582 12.659 46.3642C9.05546 46.7702 6.97456 44.3594 6.67004 41.5426C6.23864 37.66 9.63912 35.8582 12.6843 35.5283C12.2022 32.61 9.28385 32.1279 7.32984 32.3562C3.39644 32.7876 -0.587709 36.4165 0.0720868 42.5069C0.833389 49.384 6.64466 51.5918 13.065 50.8813C21.2363 49.9931 28.3672 44.5117 27.3267 35.0716C26.0071 22.9161 13.2172 23.1699 12.3037 14.897Z" fill="#13565E"/>
<path d="M163.016 27.2052C161.037 27.4082 159.387 26.4693 159.007 22.9165C158.956 22.409 158.931 21.7746 158.931 21.2163C165.655 20.0743 171.289 14.4407 170.579 7.91887C170.274 5.10205 168.802 2.64051 163.778 3.1988C152.231 4.46763 150.074 18.4502 150.785 24.9213C150.886 25.8856 151.064 26.7484 151.318 27.5097C150.734 28.2457 149.973 28.7278 148.907 28.8547C147.207 29.0323 146.547 28.1441 146.394 26.723C146.039 23.5763 147.993 16.4708 147.511 11.903C147.004 7.38596 144.161 5.83798 140.558 6.21863C138.477 6.44702 135.508 7.41134 133.249 11.8776C132.26 8.45178 129.9 7.36058 126.905 7.6651C124.926 7.89349 122.464 8.6548 120.383 11.6239L120.688 8.62942L112.593 9.51761L110.283 32.5343C109.75 33.0419 109.091 33.3718 108.228 33.4733C106.553 33.6509 105.868 32.7627 105.716 31.367C105.36 28.2203 107.314 21.1148 106.832 16.547C106.325 12.0299 103.482 10.4819 99.8789 10.8626C97.798 11.091 94.8289 12.0553 92.5704 16.5216C91.5553 13.0957 89.2206 11.9792 86.2516 12.3091C84.2722 12.5374 81.8106 13.2987 79.7297 16.2678L80.0343 13.2734L71.9391 14.1616L69.6044 37.5589C69.0969 38.0411 68.4878 38.371 67.7773 38.4471C66.2039 38.6247 65.3665 37.8634 65.2142 36.2901C65.1635 35.7825 65.1635 35.2243 65.2396 34.463L67.1936 14.8721L59.0984 15.7603L58.7939 18.8055L58.7432 18.3995C58.5655 16.7754 57.0683 15.6842 53.8708 16.0394C44.0754 17.1053 40.7257 29.7429 41.5631 37.3305C41.6646 38.2441 41.8169 39.0815 42.0453 39.8175C41.284 40.7056 40.345 41.2893 39.3046 41.4162C37.7312 41.5938 36.9445 41.1624 36.7669 39.5891C36.7161 39.0815 36.6908 38.5232 36.7923 37.7619L38.5433 20.4804L41.9184 20.0997L42.1214 17.7904L38.7463 18.1711L39.6852 9.06083L31.4885 11.091L30.6511 19.0339L28.7986 19.2369L28.5956 21.5462L30.4481 21.3432L28.7986 37.5335C28.6717 38.9293 28.621 40.1727 28.7478 41.2385C29.2554 45.9586 32.123 47.7096 35.5234 47.329C37.6043 47.1006 40.7764 46.1616 43.2887 42.5835C44.9636 45.0704 47.5266 45.8317 50.0643 45.5526C54.0738 45.1212 56.4339 42.2282 57.8804 39.4622C58.5909 42.8119 60.8241 44.3853 63.9708 44.03C65.4426 43.8777 67.3459 43.3702 69.1984 41.7968L69.0969 42.9388L77.1921 42.0506L79.0192 23.551C79.5521 20.6326 80.7956 18.0442 83.0033 17.8158C84.2468 17.6889 84.8305 18.8563 84.9573 20.0997C85.0081 20.6072 85.0081 21.064 84.932 21.5208L82.9526 41.3908L91.0478 40.5026L92.9003 22.003C93.4332 19.0846 94.702 16.5723 96.7322 16.344C98.0771 16.1917 98.8638 17.1306 99.0668 18.9831C99.4729 22.5866 97.6965 29.7936 98.1025 33.6255C98.4578 36.823 100.539 39.7921 105.436 39.2592C106.731 39.1069 108.279 38.7263 109.776 37.5082L109.7 38.2441L117.795 37.3559L119.647 18.8563C120.18 15.9379 121.449 13.3495 123.632 13.1211C124.875 12.9942 125.459 14.1869 125.586 15.405C125.636 15.9125 125.636 16.3693 125.56 16.8261L123.581 36.6961L131.676 35.8079L133.579 17.4098C134.112 14.5168 135.381 11.9792 137.411 11.7508C138.756 11.5985 139.543 12.5374 139.746 14.3899C140.152 17.9934 138.375 25.2004 138.781 29.0323C139.137 32.2552 141.218 35.1989 146.115 34.666C148.095 34.4376 150.632 33.6255 152.713 30.3012C154.439 32.5089 157.18 33.2703 160.479 32.8896C164.97 32.3821 168.828 30.022 169.31 23.4748C167.711 25.2766 165.173 26.9768 163.016 27.2052ZM164.59 6.11712C165.655 5.99024 166.087 6.85305 166.239 8.27415C166.747 12.9942 163.397 17.7651 159.032 18.4756C159.641 12.9942 161.773 6.44702 164.59 6.11712ZM57.2459 34.2599C56.9414 37.6097 54.759 39.5383 53.1095 39.7413C52.0945 39.8428 50.2927 39.9951 49.8105 35.6557C49.2269 30.3773 51.2063 19.8967 56.0025 19.3638C57.8042 19.1608 58.464 20.5819 58.5401 21.2417L57.2459 34.2599Z" fill="#13565E"/>
<path d="M194.128 28.5755C192.783 16.42 179.993 16.6738 179.08 8.40095C178.699 5.02584 180.602 3.04645 183.698 2.71656C186.794 2.38666 188.063 4.06152 188.291 6.04091C188.494 7.89341 187.708 10.1012 186.287 11.167C187.124 11.9283 187.987 12.1821 189.002 12.0552C191.819 11.7507 193.341 9.13687 192.986 5.86327C192.301 -0.328654 185.83 -0.176394 183.191 0.10275C175.933 0.889429 170.655 5.76177 171.289 11.5984C172.203 19.8712 184.104 22.0283 185.17 31.6714C185.703 36.3915 183.241 39.4621 179.46 39.8681C175.857 40.2488 173.776 37.8634 173.471 35.0465C173.04 31.1639 176.441 29.3621 179.486 29.0322C179.004 26.1139 176.085 25.6571 174.131 25.8602C170.198 26.2916 166.214 29.9204 166.873 36.0109C167.635 42.888 173.446 45.0957 179.866 44.3852C188.012 43.4716 195.169 38.0156 194.128 28.5755Z" fill="#13565E"/>
<path d="M131.524 45.5524C118.175 47.5825 101.807 49.2574 88.3069 50.9577C72.1166 53.0893 54.5051 54.7895 38.2132 55.9823C38.2132 55.8807 39.5328 55.627 38.1879 55.6777C32.7572 55.9823 32.7319 55.83 32.7065 55.6524C32.7065 55.5762 36.7668 55.2463 35.3964 55.2971C39.4567 54.8911 46.2323 54.1298 42.1466 54.4343C40.7763 54.485 35.371 55.1448 34.0261 55.1702C32.6557 55.1956 35.3457 54.7388 33.9753 54.7642L28.5701 55.4493C27.2251 55.5508 29.8897 55.0687 28.5447 55.2463C24.4844 55.7539 19.1045 56.5659 13.7247 57.4034C13.7247 57.378 12.3797 57.6317 15.0696 57.175C26.8191 55.1956 38.6954 53.4446 50.6225 51.8205C62.5495 50.1964 74.5274 48.6991 86.5306 47.3288C110.537 44.6135 134.594 42.4564 158.423 41.3399C163.879 41.1369 159.768 41.2384 155.708 41.5683L158.423 41.3906L150.302 42.2281L154.363 41.8474C155.708 41.7205 154.363 41.8982 154.363 41.9235C153.018 42.0758 151.647 42.2027 151.647 42.2281V42.3296L157.053 41.6951C155.708 41.8474 154.363 42.025 154.363 42.025V42.1012L144.897 43.3193L144.922 43.4208C147.638 43.0909 151.673 42.5326 154.363 42.1519C153.018 42.3549 153.018 42.3803 153.018 42.4057C148.983 43.0401 144.922 43.4715 140.888 44.1567L144.922 43.5984C142.334 44.1821 135.558 44.9687 131.524 45.5524Z" fill="#13565E"/>
</svg>