<svg xmlns="http://www.w3.org/2000/svg" width="30" height="30" viewBox="0 0 30 30" fill="none">
<g clip-path="url(#clip0_364_737)">
<path d="M25.3634 4.26304C19.4783 -1.42101 10.148 -1.42101 4.26283 4.26304C-1.56396 10.296 -1.39685 19.9101 4.63609 25.7369C10.5213 31.421 19.8515 31.421 25.7367 25.7369C31.5635 19.704 31.3964 10.0898 25.3634 4.26304ZM25.0229 25.0231L25.0179 25.0181C19.48 30.5509 10.5054 30.5468 4.97257 25.0089C-0.560278 19.4711 -0.556184 10.4965 4.9817 4.9637C10.5196 -0.569142 19.4942 -0.565048 25.027 4.97278C27.6846 7.63281 29.1764 11.2398 29.174 15C29.1742 18.7593 27.681 22.3648 25.0229 25.0231Z" fill="#13565E"/>
<path d="M23.5298 19.3231L20.6848 16.4882C20.0392 15.841 18.991 15.8398 18.3438 16.4855C18.3429 16.4864 18.342 16.4873 18.341 16.4882L16.711 18.1182C16.5877 18.2419 16.3934 18.259 16.2504 18.1588C15.3582 17.5353 14.5231 16.8339 13.7548 16.063C13.0666 15.3764 12.4336 14.6368 11.8615 13.8508C11.7578 13.7096 11.7728 13.5139 11.8969 13.3902L13.5674 11.7196C14.2124 11.0734 14.2124 10.0271 13.5674 9.38091L10.7225 6.53598C10.0669 5.90923 9.03427 5.90923 8.3787 6.53598L7.47765 7.43703C6.11684 8.78252 5.63105 10.7804 6.2222 12.6005C6.66332 13.9321 7.28686 15.1961 8.07497 16.3566C8.78446 17.4205 9.59843 18.4108 10.5048 19.3129C11.4902 20.3054 12.5818 21.1864 13.7598 21.9402C15.0548 22.7853 16.4767 23.4176 17.9715 23.8132C18.3558 23.908 18.7502 23.9555 19.1459 23.9549C20.5027 23.9466 21.8007 23.4005 22.7553 22.4363L23.5298 21.6618C24.1747 21.0156 24.1747 19.9693 23.5298 19.3231ZM22.8129 20.9714C22.8123 20.972 22.8116 20.9727 22.8109 20.9734L22.8159 20.9582L22.0414 21.7327C21.0463 22.7404 19.597 23.155 18.2194 22.8262C16.8316 22.4547 15.5122 21.8633 14.3114 21.0747C13.1958 20.3617 12.1619 19.5282 11.2286 18.5891C10.3697 17.7366 9.59819 16.8005 8.92524 15.7948C8.18916 14.7126 7.60655 13.5337 7.19396 12.2917C6.72099 10.8326 7.11293 9.23154 8.20642 8.1559L9.10748 7.25485C9.358 7.0032 9.76507 7.00231 10.0167 7.25283C10.0173 7.25348 10.018 7.25414 10.0187 7.25485L12.8636 10.0998C13.1153 10.3503 13.1161 10.7574 12.8656 11.009C12.865 11.0096 12.8643 11.0103 12.8636 11.011L11.1931 12.6815C10.7138 13.1556 10.6535 13.909 11.0514 14.4533C11.6556 15.2825 12.3242 16.0628 13.0509 16.787C13.8612 17.6008 14.7421 18.3411 15.6833 18.9992C16.2271 19.3785 16.9643 19.3146 17.4348 18.8473L19.0496 17.2072C19.3001 16.9555 19.7072 16.9546 19.9588 17.2052C19.9594 17.2058 19.9601 17.2065 19.9608 17.2072L22.8108 20.0623C23.0625 20.3127 23.0634 20.7197 22.8129 20.9714Z" fill="#13565E"/>
</g>
<defs>
<clipPath id="clip0_364_737">
<rect width="30" height="30" fill="white"/>
</clipPath>
</defs>
</svg>