<svg xmlns="http://www.w3.org/2000/svg" width="70" height="55" viewBox="0 0 70 55" fill="none">
  <g clip-path="url(#clip0_184_548)">
    <path d="M0 38.89C0 22.52 11.86 9.16 22.82 0L29.88 5.56C29.88 5.56 21.62 13.37 19.52 24.78C26.13 26.43 31.23 31.84 31.23 38.9C31.23 47.61 24.32 54.67 15.76 54.67C7.2 54.67 0 47.6 0 38.89ZM38.29 38.89C38.29 22.52 49.85 9.16 60.96 0L68.02 5.56C68.02 5.56 59.76 13.37 57.51 24.78C64.27 26.43 69.37 31.84 69.37 38.9C69.37 47.61 62.31 54.67 53.75 54.67C45.19 54.67 38.28 47.61 38.28 38.9L38.29 38.89Z" fill="currentcolor"/>
  </g>
  <defs>
    <clipPath id="clip0_184_548">
      <rect width="69.38" height="54.66" fill="white"/>
    </clipPath>
  </defs>
</svg>
