<svg xmlns="http://www.w3.org/2000/svg" width="34" height="32" viewBox="0 0 34 32" fill="none">
  <g clip-path="url(#clip0_365_1585)">
    <path d="M31.001 10.145L23.0816 8.99484C22.9145 8.97125 22.769 8.86508 22.6923 8.71172L19.1494 1.53551C18.6835 0.587859 17.7358 0 16.68 0C15.6242 0 14.6766 0.587859 14.2106 1.53551L10.6677 8.71172C10.593 8.86311 10.4475 8.97125 10.2785 8.99484L2.35906 10.145C1.3131 10.2964 0.461789 11.014 0.135419 12.0187C-0.190951 13.0233 0.0764362 14.1047 0.833379 14.842L6.56452 20.4296C6.68641 20.5476 6.7395 20.7166 6.71197 20.8857L5.35931 28.7737C5.18039 29.8157 5.59917 30.8479 6.45442 31.4692C6.93611 31.8191 7.50234 31.998 8.07054 31.998C8.50898 31.998 8.94741 31.8919 9.35439 31.6795L16.4382 27.9558C16.5896 27.8771 16.7685 27.8771 16.9199 27.9558L24.0017 31.6795C24.9356 32.1691 26.0484 32.0924 26.9037 31.4692C27.7589 30.8479 28.1797 29.8157 27.9988 28.7756L26.6461 20.8857C26.6186 20.7206 26.6717 20.5495 26.7955 20.4316L32.5247 14.8459C33.2816 14.1086 33.5471 13.0273 33.2227 12.0206C32.8963 11.016 32.043 10.2984 30.999 10.147L31.001 10.145Z" fill="currentcolor"/>
  </g>
  <defs>
    <clipPath id="clip0_365_1585">
      <rect width="33.3625" height="32" fill="white"/>
    </clipPath>
  </defs>
</svg>
