<svg xmlns="http://www.w3.org/2000/svg" {!! $attributes !!}  viewBox="0 0 34 32" fill="none">
  <g clip-path="url(#clip0_365_1604)">
    <path d="M31.3168 10.145L23.3974 8.99484C23.2303 8.97125 23.0848 8.86508 23.0081 8.71172L19.4652 1.53551C18.9993 0.587859 18.0516 0 16.9958 0C15.94 0 14.9924 0.587859 14.5264 1.53551L10.9835 8.71172C10.9088 8.86311 10.7633 8.97125 10.5942 8.99484L2.67485 10.145C1.62889 10.2964 0.777577 11.014 0.451207 12.0187C0.124837 13.0233 0.392224 14.1047 1.14917 14.842L6.88031 20.4296C7.0022 20.5476 7.05529 20.7166 7.02776 20.8857L5.6751 28.7737C5.49618 29.8157 5.91496 30.8479 6.77021 31.4692C7.2519 31.8191 7.81813 31.998 8.38633 31.998C8.82476 31.998 9.2632 31.8919 9.67018 31.6795L16.754 27.9558C16.9054 27.8771 17.0843 27.8771 17.2357 27.9558L24.3175 31.6795C25.2514 32.1691 26.3642 32.0924 27.2195 31.4692C28.0747 30.8479 28.4954 29.8157 28.3146 28.7756L26.9619 20.8857C26.9344 20.7206 26.9875 20.5495 27.1113 20.4316L32.8405 14.8459C33.5974 14.1086 33.8629 13.0273 33.5385 12.0206C33.2121 11.016 32.3588 10.2984 31.3148 10.147L31.3168 10.145ZM31.2794 13.2416L25.5502 18.8272C24.8995 19.4603 24.6026 20.3726 24.7579 21.2652L26.1106 29.1531C26.1578 29.4284 26.0024 29.5856 25.9041 29.6564C25.8275 29.7115 25.6191 29.8314 25.3615 29.6957L18.2777 25.972C17.4755 25.5493 16.5181 25.5512 15.7159 25.972L8.63209 29.6957C8.3765 29.8314 8.16809 29.7134 8.08945 29.6564C7.99114 29.5856 7.83582 29.4264 7.88301 29.1511L9.23568 21.2652C9.391 20.3706 9.09412 19.4583 8.44334 18.8253L2.71417 13.2377C2.50577 13.0351 2.55295 12.8012 2.58244 12.7088C2.61193 12.6164 2.7122 12.4001 2.99729 12.3588L10.9186 11.2087C11.8152 11.0769 12.5898 10.5146 12.9929 9.70066L16.5357 2.52445C16.6635 2.26493 16.9014 2.2374 16.9978 2.2374C17.0941 2.2374 17.332 2.26493 17.4598 2.52445L21.0027 9.70263C21.4038 10.5146 22.1784 11.0789 23.0769 11.2087L30.9963 12.3588C31.2814 12.4001 31.3817 12.6183 31.4111 12.7088C31.4406 12.7992 31.4878 13.0351 31.2794 13.2377V13.2416Z" fill="currentcolor"/>
  </g>
  <defs>
    <clipPath id="clip0_365_1604">
      <rect width="33.3625" height="32" fill="white" transform="translate(0.315796)"/>
    </clipPath>
  </defs>
</svg>
